                                    <svg width="40" height="40" viewBox="0 0 40 40" fill="none"
                                        xmlns="http://www.w3.org/2000/svg">
                                        <path
                                            d="M20 0C8.96 0 0 8.96 0 20C0 31.04 8.96 40 20 40C31.04 40 40 31.04 40 20C40 8.96 31.04 0 20 0ZM20 35.5C11.46 35.5 4.5 28.54 4.5 20C4.5 17.28 5.22 14.62 6.56 12.28C6.96 11.56 7.88 11.32 8.6 11.72L20.74 18.7C21.46 19.12 21.7 20.02 21.3 20.74C20.88 21.46 19.98 21.7 19.26 21.3L13.44 17.96C13.24 18.62 13.1 19.3 13.1 20C13.1 23.8 16.2 26.9 20 26.9C23.8 26.9 26.9 23.8 26.9 20C26.9 16.2 23.8 13.1 20 13.1C18.98 13.1 17.98 13.32 17.06 13.76C16.3 14.12 15.42 13.8 15.06 13.04C14.7 12.3 15.02 11.4 15.78 11.04C17.1 10.42 18.52 10.1 20 10.1C25.46 10.1 29.9 14.54 29.9 20C29.9 25.46 25.46 29.9 20 29.9C14.54 29.9 10.1 25.46 10.1 20C10.1 18.78 10.34 17.56 10.78 16.42L8.48 15.12C7.84 16.66 7.5 18.32 7.5 20C7.5 26.9 13.1 32.5 20 32.5C26.9 32.5 32.5 26.9 32.5 20C32.5 13.1 26.9 7.5 20 7.5C17.28 7.5 14.68 8.36 12.5 10C11.84 10.5 10.9 10.36 10.4 9.7C9.9 9.04 10.04 8.1 10.7 7.6C13.4 5.58 16.62 4.5 20 4.5C28.54 4.5 35.5 11.46 35.5 20C35.5 28.54 28.54 35.5 20 35.5Z"
                                            fill="#F0500A" />
                                    </svg>