                                    <svg width="40" height="40" viewBox="0 0 40 40" fill="none"
                                        xmlns="http://www.w3.org/2000/svg">
                                        <path
                                            d="M38.6047 18.6047H34.8093C34.1395 11.5163 28.4837 5.84186 21.3953 5.1907V1.39535C21.3953 0.632558 20.7628 0 20 0C19.2372 0 18.6047 0.632558 18.6047 1.39535V5.1907C11.5163 5.86047 5.84186 11.5163 5.1907 18.6047H1.39535C0.632558 18.6047 0 19.2372 0 20C0 20.7628 0.632558 21.3953 1.39535 21.3953H5.1907C5.86047 28.4837 11.5163 34.1581 18.6047 34.8093V38.6047C18.6047 39.3674 19.2372 40 20 40C20.7628 40 21.3953 39.3674 21.3953 38.6047V34.8093C28.4837 34.1395 34.1581 28.4837 34.8093 21.3953H38.6047C39.3674 21.3953 40 20.7628 40 20C40 19.2372 39.3674 18.6047 38.6047 18.6047ZM20 25.8047C16.8 25.8047 14.1953 23.2 14.1953 20C14.1953 16.8 16.8 14.1953 20 14.1953C23.2 14.1953 25.8047 16.8 25.8047 20C25.8047 23.2 23.2 25.8047 20 25.8047Z"
                                            fill="#15C872" />
                                    </svg>