<svg width="52" height="37" viewBox="0 0 52 37" fill="none" xmlns="http://www.w3.org/2000/svg">
<g clip-path="url(#clip0_1_1684)">
<path d="M38.4507 20.9897V21.6673L38.6594 24.6384L36.1181 27.0641C36.1181 27.0641 24.0511 13.698 24.2377 13.6676C24.4243 13.6372 29.2138 12.27 29.2138 12.27L38.4507 20.9897Z" fill="#FFDFCF"/>
<path d="M37.1367 24.7334L27.8762 15.6869L21.5343 9.30535C21.1002 8.88125 20.5792 8.55168 20.0056 8.33811L17.8488 7.53541L16.4285 6.14799L14.206 3.32227L4.30145 13.0231L7.35673 16.1841L10.3955 19.1527V21.0707C10.3955 21.765 10.6779 22.431 11.1805 22.922L14.7183 26.1797L23.8547 33.037L26.2457 35.3728C26.9975 36.1072 28.2161 36.1072 28.9679 35.3728C29.3433 35.0051 29.532 34.5246 29.532 34.0421C29.532 33.5616 29.3433 33.0792 28.9679 32.7125C29.3433 33.0792 29.8372 33.2635 30.329 33.2635C30.8229 33.2635 31.3147 33.0792 31.6912 32.7125C32.443 31.978 32.443 30.7876 31.6912 30.0531C32.0676 30.4199 32.5594 30.6042 33.0523 30.6042C33.5451 30.6042 34.037 30.4199 34.4134 30.0531C35.1652 29.3187 35.1652 28.1273 34.4134 27.3928C35.1652 28.1273 36.3848 28.1273 37.1366 27.3928C37.512 27.0251 37.7007 26.5446 37.7007 26.0632C37.7008 25.5816 37.5121 25.1011 37.1367 24.7334Z" fill="#FFCEBF"/>
<path d="M23.9332 30.3444C24.6729 31.0671 24.6729 32.2379 23.9332 32.9606L21.9106 34.9365C21.1708 35.6582 19.9723 35.6582 19.2325 34.9365L19.1873 34.8924C18.4485 34.1697 18.4485 32.9989 19.1873 32.2762L20.9831 30.5219L21.2109 30.3003C21.9497 29.5776 23.1482 29.5776 23.888 30.3003L23.9332 30.3444Z" fill="#FFDFCF"/>
<path d="M20.983 27.9068C21.7228 28.6285 21.7228 29.8003 20.983 30.522L19.1873 32.2762C18.8179 32.638 18.3331 32.8185 17.8482 32.8185C17.3644 32.8185 16.8796 32.638 16.5102 32.2762C15.7704 31.5545 15.7704 30.3827 16.5102 29.661L18.306 27.9068C18.6754 27.5449 19.1602 27.3645 19.645 27.3645C20.1288 27.3645 20.6136 27.5449 20.983 27.9068Z" fill="#FFDFCF"/>
<path d="M19.1491 24.4678C19.8879 25.1895 19.8879 26.3603 19.1491 27.083L18.306 27.9067L16.5102 29.6609C16.1398 30.0218 15.656 30.2022 15.1712 30.2022C14.6864 30.2022 14.2025 30.0218 13.8322 29.6609C13.0934 28.9382 13.0934 27.7674 13.8322 27.0447L15.4593 25.4552L16.4711 24.4678C16.8405 24.1069 17.3253 23.9255 17.8101 23.9255C18.2949 23.9255 18.7797 24.1069 19.1491 24.4678Z" fill="#FFDFCF"/>
<path d="M15.4593 22.8401C16.1991 23.5628 16.1991 24.7336 15.4593 25.4553L13.8322 27.0448C13.4628 27.4057 12.978 27.5871 12.4941 27.5871C12.0093 27.5871 11.5245 27.4057 11.1551 27.0448C10.4153 26.3231 10.4153 25.1523 11.1551 24.4296L12.7822 22.8401C13.1526 22.4793 13.6364 22.2979 14.1213 22.2979C14.6061 22.2979 15.0899 22.4793 15.4593 22.8401Z" fill="#FFDFCF"/>
<path d="M20.4613 33.5207L22.2571 31.7665L22.485 31.5449C23.0023 31.0388 23.7466 30.8897 24.3994 31.0924C24.3106 30.8194 24.1548 30.561 23.9331 30.3444L23.8879 30.3003C23.1481 29.5776 21.9496 29.5776 21.2109 30.3003L20.983 30.5219L19.1873 32.2762C18.4485 32.9989 18.4485 34.1697 19.1873 34.8923L19.2324 34.9365C19.4543 35.1529 19.7183 35.3047 19.9979 35.3913C19.7909 34.7535 19.9441 34.0267 20.4613 33.5207Z" fill="#FFCEBF"/>
<path d="M17.7843 30.9057L19.58 29.1514C19.9494 28.7896 20.4342 28.6091 20.919 28.6091C21.101 28.6091 21.2831 28.6347 21.4592 28.6858C21.3723 28.4006 21.2137 28.1318 20.9831 27.9068C20.6137 27.5449 20.1289 27.3645 19.6451 27.3645C19.1602 27.3645 18.6754 27.5449 18.306 27.9068L16.5103 29.661C15.7705 30.3827 15.7705 31.5545 16.5103 32.2762C16.7407 32.5019 17.0162 32.657 17.3082 32.7418C17.1166 32.1122 17.2752 31.4023 17.7843 30.9057Z" fill="#FFCEBF"/>
<path d="M15.1062 28.2893L16.7333 26.6998L17.7451 25.7123C18.1145 25.3515 18.5993 25.1701 19.0842 25.1701C19.2664 25.1701 19.4486 25.1958 19.6248 25.247C19.5381 24.9617 19.3797 24.6928 19.1492 24.4678C18.7798 24.1069 18.295 23.9255 17.8102 23.9255C17.3253 23.9255 16.8405 24.1069 16.4711 24.4678L15.4593 25.4552L13.8322 27.0447C13.0934 27.7674 13.0934 28.9382 13.8322 29.6609C14.0633 29.8861 14.3385 30.0409 14.6306 30.1255C14.4394 29.4959 14.5979 28.7865 15.1062 28.2893Z" fill="#FFCEBF"/>
<path d="M12.4291 25.6742L14.0563 24.0847C14.4266 23.7238 14.9105 23.5424 15.3953 23.5424C15.5775 23.5424 15.7595 23.5681 15.9352 23.6192C15.8484 23.334 15.6898 23.0653 15.4592 22.8401C15.0898 22.4793 14.606 22.2979 14.1212 22.2979C13.6364 22.2979 13.1526 22.4793 12.7822 22.8401L11.1551 24.4296C10.4153 25.1523 10.4153 26.3231 11.1551 27.0448C11.3854 27.2699 11.6607 27.425 11.9528 27.51C11.7615 26.8807 11.9202 26.1713 12.4291 25.6742Z" fill="#FFCEBF"/>
<path d="M38.8241 6.85278L47.7416 15.6554L46.4949 16.9841L38.6595 24.6385L27.5849 14.5876H23.912L21.5371 16.4948C20.6398 17.2145 19.3298 17.1527 18.5098 16.3506C18.0691 15.9202 17.8483 15.3563 17.8483 14.7925C17.8483 14.2287 18.0691 13.6648 18.5098 13.2344L21.3725 10.4378C21.6204 10.1956 21.9557 10.0593 22.306 10.0593H29.8654C30.1194 10.0593 30.3693 10.123 30.5921 10.2446L33.4127 11.7812C33.5442 11.8527 33.7069 11.8312 33.8143 11.7292L36.6228 9.05025L38.8241 6.85278Z" fill="white"/>
<path d="M20.1435 15.5792C20.1435 15.0154 20.3643 14.4516 20.805 14.0211L22.8014 12.0708C23.6042 11.2866 24.693 10.846 25.8283 10.846H31.6964L30.5921 10.2444C30.3693 10.1228 30.1194 10.0591 29.8654 10.0591H22.306C21.9564 10.0591 21.621 10.1948 21.3738 10.4363L18.5098 13.2342C18.0691 13.6647 17.8483 14.2285 17.8483 14.7923C17.8483 15.3562 18.0691 15.92 18.5098 16.3505C19.0792 16.9074 19.8864 17.1071 20.6262 16.9363C20.3069 16.5386 20.1435 16.0591 20.1435 15.5792Z" fill="#FFCEBF"/>
<path d="M50.3986 15.0687L48.0705 17.343C47.742 17.6639 47.2115 17.6698 46.8756 17.3564L36.9019 8.04943C36.555 7.72574 36.5487 7.18652 36.888 6.85509L41.9756 1.88504C42.3942 1.47614 43.0955 1.56439 43.3944 2.0636L50.5397 13.9991C50.7471 14.3454 50.6891 14.7849 50.3986 15.0687Z" fill="white"/>
<path d="M1.53518 11.0803C1.3001 11.3048 1.29799 11.6737 1.53047 11.9009L4.98214 15.2728C5.5048 15.7834 6.35218 15.7834 6.87485 15.2728L16.4935 5.87644C17.0161 5.36585 17.0161 4.53805 16.4935 4.02746L13.1605 0.771562C12.9316 0.547991 12.5611 0.545932 12.3297 0.767052L1.53518 11.0803Z" fill="#20AFFF"/>
<path d="M41.9586 20.3755L37.8407 24.3983C37.7869 24.3347 37.7299 24.2728 37.669 24.2133L32.3508 19.018C32.0567 18.7308 31.5801 18.7308 31.2861 19.018C30.9921 19.3052 30.9921 19.7709 31.2861 20.058L36.6043 25.2533C37.0615 25.6998 37.0615 26.4265 36.6044 26.8731C36.1469 27.3196 35.4031 27.3197 34.9461 26.8731L31.9909 23.9862C31.6968 23.699 31.2202 23.699 30.9262 23.9862C30.6322 24.2734 30.6322 24.739 30.9262 25.0262L33.8814 27.9131C33.8815 27.9132 33.8817 27.9133 33.8818 27.9135C34.1031 28.1298 34.2249 28.4172 34.2249 28.723C34.2249 29.029 34.103 29.3166 33.8814 29.533C33.66 29.7493 33.3656 29.8684 33.0524 29.8684C32.7392 29.8684 32.4448 29.7493 32.2234 29.533L29.2682 26.6461C28.9741 26.3589 28.4975 26.3589 28.2035 26.6461C27.9095 26.9333 27.9095 27.399 28.2035 27.6861L31.1587 30.573C31.6159 31.0195 31.6159 31.7462 31.1588 32.1928C30.9373 32.4092 30.6428 32.5283 30.3296 32.5283C30.0164 32.5283 29.722 32.4092 29.5006 32.1929L26.5454 29.306C26.2513 29.0188 25.7747 29.0188 25.4807 29.306C25.1867 29.5932 25.1867 30.0589 25.4807 30.346L28.4359 33.2329C28.8931 33.6794 28.8931 34.4061 28.4359 34.8527C28.2144 35.069 27.92 35.1882 27.6068 35.1882C27.2937 35.1882 26.9993 35.069 26.7778 34.8527L24.8633 32.9825C25.4733 31.9894 25.341 30.6795 24.4656 29.8244L24.4203 29.7801C23.8371 29.2104 23.047 28.963 22.2839 29.0374C22.2411 28.4136 21.9726 27.8327 21.5157 27.3863C21.1622 27.041 20.7328 26.8141 20.2795 26.7055C20.3951 26.4126 20.4562 26.0985 20.4562 25.7752C20.4562 25.0847 20.1809 24.4356 19.6812 23.9473C19.1814 23.4591 18.5169 23.1902 17.81 23.1902C17.4072 23.1902 17.0184 23.2778 16.6657 23.4433C16.5471 23.0317 16.323 22.6433 15.992 22.32C14.9604 21.3121 13.2816 21.3122 12.2498 22.32L11.9394 22.6233L11.713 22.4021C11.349 22.0465 11.1485 21.5737 11.1485 21.0708V19.1528C11.1485 18.9578 11.0692 18.7707 10.9281 18.6328L7.71421 15.4932L8.6179 14.6103C8.91191 14.3231 8.91191 13.8574 8.6178 13.5703C8.3239 13.283 7.84721 13.2831 7.5532 13.5703L6.34266 14.753C6.1144 14.9759 5.7428 14.976 5.51454 14.753L1.64049 10.9683C1.34648 10.6811 0.869894 10.6811 0.575789 10.9683C0.281784 11.2555 0.281784 11.7211 0.575789 12.0083L4.44994 15.793C4.85768 16.1912 5.39309 16.3902 5.9285 16.3902C6.09994 16.3902 6.27089 16.3675 6.43811 16.3267L9.64285 19.4573V21.0707C9.64285 21.9665 10 22.8086 10.6483 23.442L10.8748 23.6633L10.6228 23.9094C10.1231 24.3976 9.84772 25.0468 9.84772 25.7373C9.84772 26.4278 10.123 27.0769 10.6227 27.5651C11.1387 28.069 11.8163 28.321 12.494 28.321C12.5047 28.321 12.5154 28.3204 12.5262 28.3202C12.5261 28.3311 12.5254 28.3419 12.5254 28.3529C12.5254 29.0434 12.8006 29.6925 13.3004 30.1807C13.8002 30.6689 14.4648 30.9378 15.1715 30.9378C15.1827 30.9378 15.1938 30.9371 15.205 30.937C15.1966 31.6094 15.4539 32.2844 15.9779 32.7962C16.4938 33.3002 17.1714 33.5522 17.8491 33.5522C17.8602 33.5522 17.8714 33.5515 17.8824 33.5514C17.8738 34.2242 18.131 34.8997 18.6554 35.4119L18.7008 35.4562C19.2006 35.9445 19.8651 36.2134 20.5718 36.2134C21.2787 36.2134 21.9432 35.9445 22.4429 35.4562L23.8548 34.0772L25.7133 35.8928C26.2191 36.387 26.8917 36.6591 27.607 36.6591C28.3224 36.6591 28.995 36.387 29.5008 35.8928C30.0345 35.3714 30.2946 34.683 30.2828 33.9981C30.2985 33.9984 30.314 33.9992 30.3298 33.9992C31.0452 33.9992 31.7177 33.7271 32.2236 33.2329C32.7576 32.7112 33.0178 32.0222 33.0056 31.337C33.0213 31.3373 33.0369 31.3381 33.0526 31.3381C33.7383 31.338 34.4243 31.083 34.9462 30.5731C35.4521 30.079 35.7307 29.422 35.7307 28.7231C35.7307 28.7077 35.7298 28.6925 35.7296 28.6772C35.7448 28.6775 35.7601 28.6783 35.7753 28.6783C36.4611 28.6783 37.147 28.4233 37.6692 27.9133C38.2369 27.3587 38.4952 26.615 38.4456 25.8879L43.0236 21.4157C43.3176 21.1285 43.3176 20.6628 43.0236 20.3757C42.7293 20.0883 42.2527 20.0883 41.9586 20.3755ZM11.6873 26.525C11.4719 26.3145 11.3534 26.0348 11.3534 25.7373C11.3534 25.4397 11.472 25.1599 11.6874 24.9495L13.3144 23.3601C13.5369 23.1429 13.8289 23.0342 14.121 23.0342C14.413 23.0342 14.705 23.1428 14.9273 23.36C15.372 23.7945 15.372 24.5013 14.9273 24.9356L13.3002 26.5251C12.8555 26.9595 12.1321 26.9594 11.6873 26.525ZM15.1713 29.467C14.8668 29.467 14.5803 29.3511 14.3649 29.1407C14.1495 28.9302 14.0309 28.6505 14.0309 28.353C14.0309 28.0555 14.1496 27.7756 14.365 27.5652L15.9921 25.9757L17.0037 24.9874C17.2191 24.777 17.5054 24.6611 17.81 24.6611C18.1147 24.6611 18.4011 24.777 18.6164 24.9874C18.8318 25.1979 18.9504 25.4777 18.9504 25.7752C18.9504 26.0727 18.8318 26.3526 18.6164 26.563L15.9777 29.1408C15.7622 29.3511 15.476 29.467 15.1713 29.467ZM17.0424 31.7562C16.5977 31.3218 16.5977 30.615 17.0424 30.1807L18.8382 28.4262C19.0605 28.2091 19.3525 28.1006 19.6446 28.1006C19.9366 28.1006 20.2287 28.2092 20.451 28.4263C20.6664 28.6367 20.785 28.9166 20.785 29.2141C20.785 29.5115 20.6666 29.7911 20.4514 30.0014L18.6551 31.7561C18.2105 32.1906 17.487 32.1906 17.0424 31.7562ZM21.3779 34.4162C21.1625 34.6266 20.8763 34.7425 20.5716 34.7425C20.2671 34.7425 19.9806 34.6266 19.7653 34.4162L19.72 34.3719C19.2752 33.9375 19.2752 33.2307 19.72 32.7963L21.5158 31.0421C21.5164 31.0415 21.5169 31.0409 21.5174 31.0404L21.7427 30.8202C21.9652 30.603 22.2571 30.4944 22.5492 30.4944C22.8412 30.4944 23.1333 30.6031 23.3556 30.8202L23.4008 30.8644C23.8456 31.2988 23.8456 32.0056 23.4008 32.44L21.3779 34.4162Z" fill="black"/>
<path d="M51.4242 14.067C51.1302 13.7798 50.6536 13.7797 50.3595 14.067L47.5383 16.823C47.4995 16.861 47.4356 16.8616 47.3959 16.8246L37.4222 7.51767C37.4017 7.49846 37.391 7.47463 37.3907 7.44678C37.3904 7.41893 37.4006 7.39481 37.4206 7.3752L43.3362 1.59647C43.6302 1.30926 43.6302 0.843585 43.3362 0.556472C43.0422 0.269262 42.5656 0.269262 42.2715 0.556472L36.3559 6.3352C36.0474 6.63673 35.8802 7.03749 35.8853 7.46374C35.8894 7.80734 36.0066 8.13083 36.2165 8.39804L33.5093 10.9916L30.9587 9.60189C30.6253 9.42019 30.2474 9.32419 29.8656 9.32419H22.6184L22.0668 8.78546C21.5543 8.28478 20.9511 7.90314 20.2738 7.65103L18.2676 6.90432L17.3405 5.99867C17.8199 5.2143 17.7167 4.18215 17.026 3.50751L14.0052 0.556472C13.7112 0.269262 13.2346 0.269262 12.9405 0.556472C12.6465 0.843683 12.6465 1.30936 12.9405 1.59647L15.9613 4.54751C16.1896 4.77049 16.1896 5.13341 15.9613 5.35649L9.82194 11.354C9.52794 11.6412 9.52794 12.1069 9.82194 12.394C9.969 12.5375 10.1617 12.6094 10.3543 12.6094C10.547 12.6094 10.7397 12.5376 10.8867 12.394L16.3223 7.08406L17.3167 8.05552C17.3918 8.12887 17.4819 8.18584 17.5811 8.22281L19.7378 9.02551C20.2031 9.19877 20.6185 9.45941 20.9738 9.79928C20.9282 9.83683 20.8833 9.87566 20.8405 9.91744L17.9774 12.7146C17.4091 13.2696 17.0963 14.0077 17.0963 14.7927C17.0963 15.5776 17.4091 16.3156 17.9773 16.8707C18.5644 17.4442 19.3324 17.7352 20.1038 17.7352C20.7779 17.7352 21.4545 17.5129 22.015 17.0628L24.1817 15.3227H26.4387L29.0176 17.842C29.1646 17.9855 29.3573 18.0574 29.55 18.0574C29.7426 18.0574 29.9353 17.9856 30.0824 17.842C30.3764 17.5547 30.3764 17.0891 30.0824 16.802L28.2193 14.9819C28.2938 14.8678 28.3376 14.7326 28.3376 14.5872C28.3376 14.1811 28.0006 13.8518 27.5848 13.8518H23.9119C23.7375 13.8518 23.5685 13.9109 23.4338 14.0192L21.0588 15.9266C20.4582 16.4087 19.5914 16.3675 19.042 15.8307C18.7581 15.5534 18.6018 15.1848 18.6018 14.7928C18.6018 14.4007 18.7581 14.032 19.042 13.7548L21.9052 10.9576C22.0123 10.8529 22.1549 10.7952 22.3064 10.7952H29.8655C29.9911 10.7952 30.1154 10.8268 30.2251 10.8866L33.0461 12.4236C33.4649 12.652 33.9974 12.5828 34.3417 12.2541L37.2904 9.42901L45.409 17.0048L44.2272 18.1594C43.9332 18.4466 43.9332 18.9123 44.2273 19.1994C44.3743 19.343 44.567 19.4148 44.7596 19.4148C44.9522 19.4148 45.145 19.343 45.292 19.1994L46.5079 18.0116C46.7905 18.2162 47.1279 18.3195 47.4659 18.3195C47.879 18.3195 48.292 18.167 48.6029 17.8631L51.4242 15.1072C51.7181 14.8198 51.7181 14.3542 51.4242 14.067Z" fill="black"/>
</g>
<defs>
<clipPath id="clip0_1_1684">
<rect width="51.2894" height="37" fill="white" transform="translate(0.355286)"/>
</clipPath>
</defs>
</svg>
