<svg width="44" height="45" viewBox="0 0 44 45" fill="none" xmlns="http://www.w3.org/2000/svg">
<path d="M37.8618 41.702C37.8367 41.702 35.4577 39.5364 35.295 39.6992C35.1322 39.8619 27.029 39.6992 27.029 39.6992L24.5137 41.6822V41.7019V43.5032C24.5137 43.9655 24.8885 44.3402 25.3508 44.3402H37.0499C37.5122 44.3402 37.887 43.9655 37.887 43.5032V41.7019V41.6989C37.8718 41.701 37.8629 41.702 37.8618 41.702Z" fill="white"/>
<path d="M21.9551 29.1671C29.8155 29.1671 36.1876 22.795 36.1876 14.9346C36.1876 7.07424 29.8155 0.702148 21.9551 0.702148C14.0948 0.702148 7.72266 7.07424 7.72266 14.9346C7.72266 22.795 14.0948 29.1671 21.9551 29.1671Z" fill="#F9F7F8"/>
<path d="M23.0015 24.8075L30.4089 16.6809C32.282 14.6248 32.209 11.4598 30.2418 9.49338L30.2251 9.47579C28.1919 7.44346 24.8958 7.44346 22.8635 9.47579L21.9339 10.4053L20.985 9.46084C18.9509 7.43555 15.661 7.43819 13.6314 9.46876C12.6165 10.4827 12.1064 11.815 12.1064 13.15C12.1064 14.4155 12.5655 15.6836 13.4898 16.6826L21.0061 24.8146C21.5452 25.3967 22.4669 25.3941 23.0015 24.8075Z" fill="#FFED8D"/>
<path d="M17.3156 16.6825C16.3913 15.6834 15.9323 14.4153 15.9323 13.1498C15.9323 11.8149 16.4423 10.4826 17.4572 9.46861C17.9776 8.9479 18.5811 8.56158 19.225 8.3076C17.3544 7.56951 15.1433 7.95601 13.6314 9.46861C12.6165 10.4826 12.1064 11.8149 12.1064 13.1498C12.1064 14.4153 12.5655 15.6834 13.4898 16.6825L21.0061 24.8144C21.5452 25.3966 22.4669 25.394 23.0015 24.8074L23.9072 23.8138L17.3156 16.6825Z" fill="#FEB700"/>
<path d="M18.261 39.1034L18.2574 39.1254C18.1748 39.1105 18.0904 39.1034 18.0033 39.1034H7.64289C7.55582 39.1034 7.47052 39.1105 7.38786 39.1254L7.38434 39.1034V34.3423L2.17907 27.9894C1.66637 27.365 1.38672 26.5814 1.38672 25.7732V14.4639C1.38672 13.8756 1.62504 13.3436 2.01022 12.9575C2.39541 12.5723 2.92834 12.334 3.51667 12.334C4.64847 12.334 5.58241 13.2196 5.64309 14.3505L6.06258 22.2169L6.07665 22.2353C6.38708 21.9988 6.76083 21.8792 7.13546 21.8792C7.52856 21.8792 7.92254 22.0102 8.24705 22.2767L17.3684 29.7482C17.9338 30.2108 18.261 30.9029 18.261 31.6337V39.1034Z" fill="white"/>
<path d="M9.38554 34.1593C9.38554 33.1946 9.05145 32.2598 8.44008 31.5136L4.18027 26.3146C3.66757 25.6902 3.38792 24.9067 3.38792 24.0985V12.7892C3.38792 12.6335 3.40507 12.482 3.43673 12.3359C2.88014 12.3565 2.37782 12.5898 2.01022 12.9574C1.62504 13.3435 1.38672 13.8755 1.38672 14.4639V25.7732C1.38672 26.5813 1.66637 27.3649 2.17907 27.9893L7.38434 34.3422V39.1034L7.38786 39.1253C7.47052 39.1104 7.55582 39.1034 7.64289 39.1034H9.38563L9.38554 34.1593Z" fill="#F7EAA9"/>
<path d="M8.58035 40.3535L6.13672 41.7019V43.5503C6.13672 43.9865 6.49033 44.3402 6.92652 44.3402H18.7201C19.1563 44.3402 19.5099 43.9866 19.5099 43.5503V41.7019L18.1246 40.3535H8.58035Z" fill="white"/>
<path d="M25.7629 39.1034L25.7665 39.1254C25.8491 39.1105 25.9335 39.1034 26.0206 39.1034H36.381C36.4681 39.1034 36.5534 39.1105 36.636 39.1254L36.6396 39.1034V34.3423L41.8448 27.9894C42.3575 27.365 42.6372 26.5814 42.6372 25.7732V14.4639C42.6372 13.8756 42.3989 13.3436 42.0137 12.9575C41.6285 12.5723 41.0956 12.334 40.5072 12.334C39.3754 12.334 38.4415 13.2196 38.3808 14.3505L37.9613 22.2169L37.9473 22.2353C37.6368 21.9988 37.2631 21.8792 36.8884 21.8792C36.4953 21.8792 36.1014 22.0102 35.7769 22.2767L26.6555 29.7482C26.0901 30.2108 25.7629 30.9029 25.7629 31.6337V39.1034Z" fill="white"/>
<path d="M39.7141 21.6437C39.9193 21.4881 40.0457 21.25 40.0594 20.9928L40.3686 15.1947C40.4243 14.1572 41.2152 13.3267 42.2193 13.1965C42.1566 13.1118 42.0879 13.0319 42.0137 12.9575C41.6285 12.5723 41.0956 12.334 40.5072 12.334C39.3754 12.334 38.4415 13.2196 38.3808 14.3505L37.9613 22.2169L37.9473 22.2353C37.6368 21.9988 37.2631 21.8792 36.8884 21.8792C36.4953 21.8792 36.1014 22.0102 35.7769 22.2767L26.6555 29.7482C26.0901 30.2108 25.7629 30.9029 25.7629 31.6337V39.1034L25.7665 39.1254C25.8491 39.1105 25.9335 39.1034 26.0206 39.1034H27.7508V32.4779C27.7508 31.7471 28.0779 31.055 28.6434 30.5924L37.7647 23.1209L39.7141 21.6437Z" fill="#F7EAA9"/>
<path d="M37.8625 39.2027V41.702H24.4893V39.2027C24.4893 38.4579 25.031 37.8388 25.7415 37.7183C25.8242 37.7033 25.9086 37.6963 25.9957 37.6963H36.3561C36.4432 37.6963 36.5285 37.7033 36.6111 37.7183C37.3217 37.8388 37.8625 38.4579 37.8625 39.2027Z" fill="white"/>
<path d="M19.51 39.2027V41.702H6.13672V39.2027C6.13672 38.4579 6.67756 37.8388 7.38813 37.7183C7.47079 37.7033 7.5561 37.6963 7.64316 37.6963H18.0036C18.0906 37.6963 18.1751 37.7033 18.2577 37.7183C18.9683 37.8388 19.51 38.4579 19.51 39.2027Z" fill="white"/>
<path d="M40.4827 11.6744C39.0001 11.6744 37.7766 12.8342 37.6976 14.3148L37.3267 21.2619C36.6435 21.128 35.9119 21.2923 35.3338 21.7657L35.061 21.9892C35.1597 21.8066 35.2559 21.6224 35.3471 21.4354C35.5066 21.108 35.3706 20.7131 35.0432 20.5535C34.7158 20.3941 34.3209 20.53 34.1614 20.8574C33.0609 23.1149 31.3579 25.0237 29.2364 26.3772C27.058 27.767 24.534 28.5017 21.9374 28.5017C19.3406 28.5017 16.8166 27.767 14.6383 26.3772C12.5168 25.0236 10.8138 23.1149 9.71333 20.8574C9.55389 20.53 9.15894 20.3941 8.83154 20.5535C8.50404 20.7131 8.368 21.108 8.5277 21.4354C8.58882 21.5609 8.65293 21.6846 8.71739 21.8081L8.66559 21.7657C8.08764 21.2921 7.35596 21.1279 6.67275 21.2618L6.30181 14.3147C6.22275 12.8341 4.9993 11.6743 3.5167 11.6743C1.97877 11.6743 0.727539 12.9255 0.727539 14.4634V25.7731C0.727539 26.731 1.06189 27.6666 1.66904 28.4076L3.16616 30.2346C3.29649 30.3937 3.48583 30.4762 3.67666 30.4761C3.82379 30.4761 3.97171 30.4271 4.09438 30.3267C4.37615 30.0958 4.41739 29.6802 4.18646 29.3984L2.68934 27.5715C2.27496 27.0658 2.04666 26.4271 2.04666 25.7732V14.4635C2.04666 13.6529 2.70614 12.9935 3.5167 12.9935C4.29815 12.9935 4.94293 13.6048 4.98453 14.3851L5.38941 21.9682C4.48915 22.9123 4.50199 24.4122 5.42934 25.3397L9.56119 29.4715C9.81886 29.7291 10.2364 29.7291 10.494 29.4715C10.7516 29.2139 10.7516 28.7963 10.494 28.5388L6.36213 24.4069C5.93535 23.9802 5.93535 23.2858 6.36213 22.8591C6.76165 22.4597 7.39246 22.4283 7.82962 22.7863L16.9509 30.2581C17.3647 30.597 17.602 31.0982 17.602 31.6331V37.037H8.0442V34.342C8.0442 34.1896 7.99134 34.0418 7.89478 33.9239L5.96842 31.5731C5.73749 31.2913 5.32196 31.2503 5.0402 31.4811C4.75843 31.7119 4.71719 32.1275 4.94812 32.4093L6.72507 34.5777V37.2416C5.98838 37.5877 5.47692 38.3365 5.47692 39.2029V44.3406C5.47692 44.7048 5.77214 45.0002 6.13648 45.0002C6.50082 45.0002 6.79604 44.7048 6.79604 44.3406V42.3619H18.8501V44.3406C18.8501 44.7048 19.1453 45.0002 19.5097 45.0002C19.874 45.0002 20.1692 44.7048 20.1692 44.3406V39.2029C20.1692 38.3365 19.6578 37.5876 18.9211 37.2416V31.6332C18.9211 30.7014 18.5077 29.8283 17.7869 29.2378L17.7803 29.2324C19.1218 29.621 20.5198 29.8211 21.9374 29.8211C23.4256 29.8211 24.8916 29.5989 26.2938 29.1713L26.2126 29.2378C25.4918 29.8284 25.0784 30.7015 25.0784 31.6333V37.2418C24.3417 37.5879 23.8302 38.3366 23.8302 39.203V44.3408C23.8302 44.705 24.1255 45.0003 24.4898 45.0003C24.8541 45.0003 25.1494 44.705 25.1494 44.3408V42.3621H37.2034V44.3408C37.2034 44.705 37.4987 45.0003 37.863 45.0003C38.2273 45.0003 38.5226 44.705 38.5226 44.3408V39.203C38.5226 38.3366 38.0111 37.5879 37.2744 37.2418V34.5778L42.3304 28.4078C42.9376 27.6669 43.2719 26.7312 43.2719 25.7734V14.4635C43.2719 12.9256 42.0207 11.6744 40.4827 11.6744ZM6.79604 41.0427V39.2028C6.79604 38.7358 7.17586 38.356 7.64283 38.356H18.0035C18.4704 38.356 18.8502 38.7358 18.8502 39.2028V41.0427H6.79604ZM41.9527 25.7731C41.9527 26.4271 41.7244 27.0657 41.3101 27.5714L36.1046 33.9238C36.008 34.0417 35.9552 34.1895 35.9552 34.3419V37.0369H34.6269C34.2626 37.0369 33.9674 37.3322 33.9674 37.6964C33.9674 38.0607 34.2626 38.356 34.6269 38.356H36.3567C36.8236 38.356 37.2034 38.7358 37.2034 39.2028V41.0427H25.1493V39.2028C25.1493 38.7358 25.5291 38.356 25.9961 38.356H31.816C32.1804 38.356 32.4756 38.0607 32.4756 37.6964C32.4756 37.3322 32.1804 37.0369 31.816 37.0369H26.3975V31.633C26.3975 31.0981 26.6348 30.5969 27.0486 30.258L36.1699 22.7862C36.607 22.4282 37.2379 22.4595 37.6373 22.859C38.0641 23.2858 38.0641 23.9802 37.6373 24.4069L33.5055 28.5387C33.2479 28.7963 33.2479 29.2139 33.5055 29.4714C33.7632 29.729 34.1807 29.729 34.4383 29.4714L38.5701 25.3396C39.4974 24.4122 39.5102 22.9123 38.6101 21.9682L39.0149 14.385C39.0565 13.6047 39.7013 12.9934 40.4827 12.9934C41.2933 12.9934 41.9527 13.6528 41.9527 14.4634V25.7731Z" fill="black"/>
<path d="M26.5326 19.9544C26.2872 20.2236 26.3066 20.6407 26.5758 20.8861C26.8449 21.1315 27.2621 21.1122 27.5075 20.8429L30.8967 17.1243C33.0118 14.8036 32.9293 11.2466 30.7091 9.02638L30.6918 9.00906C28.405 6.72231 24.6842 6.7224 22.3974 9.00906L21.9333 9.47321L21.4513 8.99323C19.1648 6.7158 15.4477 6.7195 13.1655 9.00167C10.9295 11.2376 10.8595 14.8079 13.0058 17.1299L20.5224 25.2616C20.9027 25.6729 21.4415 25.9085 22.0016 25.9085H22.0085C22.5711 25.9065 23.1111 25.6669 23.4902 25.2511L25.5879 22.9494C25.8333 22.6801 25.8139 22.263 25.5447 22.0176C25.2756 21.7723 24.8584 21.7916 24.613 22.0607L22.5152 24.3624C22.3825 24.5081 22.2009 24.5886 22.004 24.5893C21.8056 24.59 21.6248 24.5107 21.4912 24.366L13.9746 16.2345C12.3109 14.4348 12.3653 11.6674 14.0983 9.93438C15.8669 8.16552 18.748 8.16271 20.5206 9.92787L21.4689 10.8724C21.7266 11.1291 22.1434 11.1286 22.4007 10.8714L23.3303 9.94186C25.1026 8.16957 27.9865 8.16948 29.7591 9.94186L29.7764 9.95918C31.4973 11.68 31.5612 14.437 29.9219 16.2358L26.5326 19.9544Z" fill="black"/>
<path d="M10.2496 6.72912C10.5377 6.9517 10.952 6.89867 11.1748 6.61031C13.7722 3.24768 17.6948 1.31912 21.937 1.31912C26.1792 1.31912 30.1018 3.24768 32.6991 6.61031C32.8291 6.77863 33.0242 6.86675 33.2216 6.86675C33.3624 6.86675 33.5042 6.82181 33.6243 6.72912C33.9125 6.50645 33.9657 6.09225 33.7431 5.80397C30.8939 2.11544 26.5909 0 21.937 0C17.283 0 12.9798 2.11544 10.1308 5.80397C9.90808 6.09216 9.96129 6.50636 10.2496 6.72912Z" fill="black"/>
<path d="M7.95486 18.3333C7.99699 18.3333 8.03982 18.3292 8.08273 18.3208C8.44013 18.2505 8.673 17.9038 8.60273 17.5464C8.43265 16.6813 8.34647 15.7945 8.34647 14.9105C8.34647 13.1879 8.6642 11.5097 9.29079 9.92236C9.42454 9.58352 9.25833 9.20045 8.9195 9.06669C8.58092 8.93311 8.19767 9.09914 8.06391 9.43798C7.37612 11.1802 7.02734 13.0213 7.02734 14.9105C7.02734 15.8796 7.12188 16.8521 7.30832 17.8007C7.37014 18.1153 7.64592 18.3333 7.95486 18.3333Z" fill="black"/>
<path d="M35.5285 14.9106C35.5285 15.7945 35.4424 16.6813 35.2723 17.5464C35.202 17.9038 35.4349 18.2506 35.7923 18.3208C35.8352 18.3293 35.878 18.3333 35.9201 18.3333C36.229 18.3333 36.5048 18.1153 36.5667 17.8008C36.7531 16.8521 36.8477 15.8798 36.8477 14.9106C36.8477 13.0216 36.4989 11.1803 35.8111 9.43813C35.6773 9.09929 35.2941 8.9329 34.9555 9.06684C34.6167 9.2006 34.4505 9.58367 34.5842 9.92251C35.2108 11.5097 35.5285 13.188 35.5285 14.9106Z" fill="black"/>
</svg>
