                                    <svg width="41" height="40" viewBox="0 0 41 40" fill="none"
                                        xmlns="http://www.w3.org/2000/svg">
                                        <path
                                            d="M14.0781 0C8.83813 0 4.57812 4.26 4.57812 9.5C4.57812 14.64 8.59813 18.8 13.8381 18.98C13.9981 18.96 14.1581 18.96 14.2781 18.98C14.3181 18.98 14.3381 18.98 14.3781 18.98C14.3981 18.98 14.3981 18.98 14.4181 18.98C19.5381 18.8 23.5581 14.64 23.5781 9.5C23.5781 4.26 19.3181 0 14.0781 0Z"
                                            fill="#F22B2B" />
                                        <path
                                            d="M24.24 24.2998C18.66 20.5798 9.56 20.5798 3.94 24.2998C1.4 25.9998 0 28.2998 0 30.7598C0 33.2198 1.4 35.4998 3.92 37.1798C6.72 39.0598 10.4 39.9998 14.08 39.9998C17.76 39.9998 21.44 39.0598 24.24 37.1798C26.76 35.4798 28.16 33.1998 28.16 30.7198C28.14 28.2598 26.76 25.9798 24.24 24.2998Z"
                                            fill="#F22B2B" />
                                        <path
                                            d="M36.0569 10.6802C36.3769 14.5602 33.6169 17.9602 29.7969 18.4202C29.7769 18.4202 29.7769 18.4202 29.7569 18.4202H29.6969C29.5769 18.4202 29.4569 18.4202 29.3569 18.4602C27.4169 18.5602 25.6369 17.9402 24.2969 16.8002C26.3569 14.9602 27.5369 12.2002 27.2969 9.2002C27.1569 7.5802 26.5969 6.1002 25.7569 4.8402C26.5169 4.4602 27.3969 4.2202 28.2969 4.1402C32.2169 3.8002 35.7169 6.7202 36.0569 10.6802Z"
                                            fill="#F22B2B" />
                                        <path
                                            d="M40.0625 29.1798C39.9025 31.1198 38.6625 32.7998 36.5825 33.9398C34.5825 35.0398 32.0625 35.5598 29.5625 35.4998C31.0025 34.1998 31.8425 32.5798 32.0025 30.8598C32.2025 28.3798 31.0225 25.9998 28.6625 24.0998C27.3225 23.0398 25.7625 22.1998 24.0625 21.5798C28.4825 20.2998 34.0425 21.1598 37.4625 23.9198C39.3025 25.3998 40.2425 27.2598 40.0625 29.1798Z"
                                            fill="#F22B2B" />
                                    </svg>