                                    <svg width="34" height="40" viewBox="0 0 34 40" fill="none"
                                        xmlns="http://www.w3.org/2000/svg">
                                        <path
                                            d="M34 28V33C34 36.86 30.86 40 27 40H7C3.14 40 0 36.86 0 33V31.7C0 28.56 2.56 26 5.7 26H32C33.1 26 34 26.9 34 28Z"
                                            fill="#9A5CFF" />
                                        <path
                                            d="M24 0H10C2 0 0 2 0 10V25.16C1.52 23.82 3.52 23 5.7 23H32C33.1 23 34 22.1 34 21V10C34 2 32 0 24 0ZM19 17.5H9C8.18 17.5 7.5 16.82 7.5 16C7.5 15.18 8.18 14.5 9 14.5H19C19.82 14.5 20.5 15.18 20.5 16C20.5 16.82 19.82 17.5 19 17.5ZM25 10.5H9C8.18 10.5 7.5 9.82 7.5 9C7.5 8.18 8.18 7.5 9 7.5H25C25.82 7.5 26.5 8.18 26.5 9C26.5 9.82 25.82 10.5 25 10.5Z"
                                            fill="#9A5CFF" />
                                    </svg>