                                    <svg width="32" height="40" viewBox="0 0 32 40" fill="none"
                                        xmlns="http://www.w3.org/2000/svg">
                                        <path
                                            d="M27.1251 6.98341V8.46413L20.0417 4.36213C17.3604 2.82138 13.6185 2.82138 10.9572 4.36213L3.87378 8.48414V6.98341C3.87378 2.48121 6.33498 0 10.8372 0H20.1617C24.6639 0 27.1251 2.48121 27.1251 6.98341Z"
                                            fill="#FBAF1A" />
                                        <path
                                            d="M27.1933 11.9461L26.9131 11.806L24.1918 10.2452L18.5491 6.98364C16.8282 5.98315 14.1869 5.98315 12.4661 6.98364L6.82333 10.2252L4.102 11.826L3.74183 12.0061C0.240117 14.3672 0 14.8075 0 18.5893V27.6337C0 31.4156 0.240117 31.8558 3.82187 34.277L12.4661 39.2594C13.3265 39.7797 14.407 39.9998 15.5076 39.9998C16.5881 39.9998 17.6886 39.7596 18.5491 39.2594L27.2733 34.2169C30.795 31.8558 31.0151 31.4356 31.0151 27.6337V18.5893C31.0151 14.8075 30.775 14.3672 27.1933 11.9461ZM21.0903 23.0115L19.8697 24.5122C19.6696 24.7323 19.5295 25.1525 19.5495 25.4527L19.6696 27.3736C19.7496 28.5542 18.9092 29.1545 17.8087 28.7343L16.0278 28.0139C15.7477 27.9139 15.2875 27.9139 15.0073 28.0139L13.2265 28.7143C12.1259 29.1545 11.2855 28.5342 11.3656 27.3536L11.4856 25.4327C11.5056 25.1325 11.3655 24.7123 11.1655 24.4922L9.92485 23.0115C9.16447 22.111 9.50464 21.1105 10.6452 20.8104L12.5061 20.3302C12.8063 20.2501 13.1464 19.97 13.3065 19.7299L14.347 18.1291C14.9873 17.1286 16.0078 17.1286 16.6681 18.1291L17.7086 19.7299C17.8687 19.99 18.2289 20.2501 18.509 20.3302L20.3699 20.8104C21.5105 21.1105 21.8507 22.111 21.0903 23.0115Z"
                                            fill="#FBAF1A" />
                                    </svg>