                                    <svg width="34" height="40" viewBox="0 0 34 40" fill="none"
                                        xmlns="http://www.w3.org/2000/svg">
                                        <path
                                            d="M29.8234 4.41184L18.8809 0.313355C17.7468 -0.104452 15.8965 -0.104452 14.7625 0.313355L3.81995 4.41184C1.71102 5.20766 0 7.67471 0 9.9229V26.0383C0 27.6498 1.05446 29.7787 2.34767 30.7337L13.2902 38.9107C15.2201 40.3631 18.3835 40.3631 20.3134 38.9107L31.2559 30.7337C32.5491 29.7588 33.6036 27.6498 33.6036 26.0383V9.9229C33.6235 7.67471 31.9125 5.20766 29.8234 4.41184ZM23.7354 15.5533L15.1803 24.1084C14.8819 24.4069 14.5039 24.5461 14.1258 24.5461C13.7478 24.5461 13.3698 24.4069 13.0714 24.1084L9.88809 20.8854C9.31112 20.3084 9.31112 19.3534 9.88809 18.7764C10.4651 18.1995 11.42 18.1995 11.997 18.7764L14.1457 20.9251L21.6464 13.4245C22.2233 12.8475 23.1783 12.8475 23.7553 13.4245C24.3323 14.0015 24.3323 14.9764 23.7354 15.5533Z"
                                            fill="#3581FF" />
                                    </svg>