<svg width="56" height="56" viewBox="0 0 56 56" fill="none" xmlns="http://www.w3.org/2000/svg">
<g clip-path="url(#clip0_1_1670)">
<path d="M27.9023 7.11594C28.5106 7.11594 29.0038 6.62277 29.0038 6.01442V1.10152C29.0038 0.493172 28.5106 0 27.9023 0C27.294 0 26.8008 0.493172 26.8008 1.10152V6.01442C26.8009 6.62277 27.2941 7.11594 27.9023 7.11594Z" fill="#FBAF1A"/>
<path d="M54.8275 37.8422L52.8816 35.9018C52.1894 35.2104 51.2668 34.8296 50.2837 34.8296C49.6552 34.8296 49.0517 34.986 48.517 35.279L44.8501 31.6164L45.0287 31.4381C46.5163 29.9475 46.5158 27.5254 45.0286 26.0399C44.4971 25.5074 43.834 25.1524 43.1111 25.003C43.2107 24.6594 43.2631 24.2996 43.2631 23.9313C43.2631 22.9081 42.8656 21.9487 42.1461 21.2322C41.6146 20.6997 40.9515 20.3447 40.2287 20.1953C40.3282 19.8517 40.3806 19.492 40.3806 19.1236C40.3806 18.1003 39.9831 17.141 39.2625 16.4234C38.7182 15.8798 38.0492 15.5357 37.3466 15.3892C37.7225 14.0935 37.4013 12.6356 36.382 11.6145C35.5334 10.7696 34.382 10.4064 33.2724 10.5241L26.0061 9.14874C24.8979 8.93852 23.514 8.79951 22.6404 9.5963C22.5853 9.64662 22.5291 9.70448 22.4737 9.7689C21.1192 9.27518 19.5394 9.56918 18.4547 10.6526C17.7352 11.3714 17.3388 12.3304 17.3388 13.353C17.3388 13.7214 17.391 14.0811 17.4904 14.4248C16.7683 14.5741 16.106 14.9287 15.5763 15.4594C14.8553 16.1774 14.4577 17.1353 14.457 18.1568C14.4566 18.526 14.509 18.8869 14.609 19.2315C13.8866 19.3804 13.2239 19.7344 12.6925 20.2651C11.9715 20.9853 11.5745 21.9449 11.5745 22.967C11.5745 23.7499 11.8082 24.4957 12.2414 25.1257C11.6945 25.3111 11.1935 25.6196 10.7741 26.0386C9.2855 27.5254 9.28495 29.9476 10.7751 31.4404L10.953 31.6175L7.28569 35.2782C5.92276 34.6365 4.24353 34.8769 3.11883 36.0002L1.17173 37.9418C0.479169 38.6335 0.0978877 39.5562 0.0977783 40.5398C0.0977783 41.5235 0.479169 42.4463 1.17173 43.1381L3.60172 45.5651C4.03211 45.9951 4.72959 45.9947 5.15943 45.5643C5.58939 45.1339 5.58895 44.4364 5.15856 44.0066L2.72858 41.5795C2.45273 41.304 2.30081 40.9348 2.30081 40.5399C2.30081 40.1452 2.45273 39.776 2.72792 39.5012L4.67512 37.5594C5.16162 37.0735 5.90625 37.0011 6.47172 37.3392C6.51153 37.399 6.55758 37.4559 6.61029 37.5087C6.70468 37.6033 6.81242 37.6758 6.92683 37.7289L18.0932 48.8789C18.1463 48.9945 18.2191 49.1033 18.3142 49.1985C18.4067 49.2911 18.5123 49.3628 18.6243 49.4155C18.8604 49.6825 18.9909 50.0235 18.9909 50.3873C18.9909 50.7821 18.839 51.1513 18.5631 51.4268L16.6179 53.3697C16.0431 53.942 15.1082 53.9419 14.5352 53.3715L12.1052 50.9413C11.675 50.5111 10.9776 50.5111 10.5475 50.9413C10.1173 51.3714 10.1173 52.0688 10.5475 52.499L12.9792 54.9309C13.695 55.6437 14.6349 56 15.5753 56C16.516 56 17.457 55.6432 18.1736 54.9297L20.1201 52.9856C20.8126 52.2938 21.194 51.3711 21.194 50.3873C21.194 49.6852 20.9988 49.0147 20.6358 48.4366L24.7632 44.3142C24.7675 44.3097 24.7719 44.3053 24.7764 44.3008C25.249 43.8122 26.5651 43.9036 27.8379 43.992C28.7422 44.0549 29.7504 44.1248 30.7355 44.0113L35.2553 48.5257C34.9625 49.0596 34.8062 49.6622 34.8062 50.2898C34.8062 51.2726 35.1876 52.1947 35.8801 52.8865L37.8267 54.8306C38.5188 55.522 39.4414 55.9028 40.4244 55.9028C41.4074 55.9028 42.33 55.5221 43.0222 54.8306L54.8283 43.0389C55.5208 42.3472 55.9022 41.4245 55.9022 40.4408C55.9021 39.4572 55.5207 38.5345 54.8275 37.8422ZM25.5959 11.3133L30.3742 12.2177L27.5142 15.0766C27.0717 14.864 26.4654 14.4674 25.8001 13.8311C24.8896 12.96 24.2383 11.9543 24.179 11.3271C24.1789 11.3267 24.1789 11.3264 24.1789 11.3261C24.1789 11.326 24.1788 11.3259 24.1788 11.3257C24.1745 11.2807 24.1734 11.2447 24.174 11.2172C24.318 11.1822 24.7006 11.1434 25.5959 11.3133ZM20.0115 12.2114C20.5695 11.6539 21.4364 11.5896 22.067 12.0166C22.4243 13.5148 23.7023 14.8727 24.2773 15.4228C24.7034 15.8306 26.0707 17.0531 27.4508 17.3891C27.6375 17.6567 27.7391 17.9757 27.7391 18.3124C27.7391 18.7461 27.5723 19.1515 27.2684 19.4551C26.9653 19.7588 26.5592 19.9259 26.1248 19.9259C25.6902 19.9259 25.2841 19.7588 24.9796 19.4537L24.9795 19.4536L24.979 19.4531L20.0114 14.4944C19.7085 14.192 19.5417 13.7866 19.5417 13.353C19.5418 12.9193 19.7086 12.5139 20.0115 12.2114ZM17.1332 17.0181C17.4362 16.7145 17.8419 16.5473 18.2757 16.5473C18.71 16.5473 19.117 16.7149 19.422 17.0196L23.4221 21.0117C24.052 21.6425 24.052 22.6691 23.4243 23.2978C23.1196 23.6013 22.712 23.7685 22.2768 23.7685C21.8416 23.7685 21.4341 23.6013 21.1307 23.2991L21.1306 23.299L18.096 20.2651C18.0913 20.2604 18.0861 20.256 18.0813 20.2512L17.132 19.3022C16.8273 18.998 16.6597 18.5917 16.66 18.1584C16.6604 17.7265 16.8276 17.3223 17.1332 17.0181ZM14.2494 21.8238C14.5527 21.5209 14.9592 21.3541 15.3943 21.3541C15.8258 21.3541 16.2288 21.5185 16.5308 21.8161L19.5747 24.8586C19.8782 25.1609 20.0455 25.5659 20.0455 25.9991C20.0455 26.4321 19.8782 26.8371 19.5735 27.1406C19.2703 27.4433 18.8642 27.6101 18.4299 27.6101C17.9949 27.6101 17.5875 27.4429 17.2839 27.1406L16.1804 26.0384C16.1802 26.0381 16.1798 26.0379 16.1796 26.0377L14.2495 24.1098C13.9452 23.8059 13.7776 23.3999 13.7776 22.9667C13.7776 22.5337 13.9452 22.1276 14.2494 21.8238ZM12.3309 27.5972C12.6355 27.293 13.0426 27.1254 13.4772 27.1254C13.9116 27.1254 14.3186 27.2929 14.6231 27.5969L15.7281 28.7006C16.0317 29.0029 16.1989 29.4079 16.1989 29.8411C16.1989 30.2742 16.0316 30.6791 15.7258 30.9838C15.4227 31.2873 15.0166 31.4546 14.5822 31.4546C14.1477 31.4546 13.7415 31.2874 13.4363 30.9816L13.2979 30.8438C13.2961 30.842 13.2946 30.84 13.2929 30.8382C13.2908 30.8363 13.2886 30.8345 13.2865 30.8326L12.332 29.8818C11.7021 29.2506 11.7016 28.2258 12.3309 27.5972ZM34.7784 40.1161C34.3484 39.6856 33.651 39.6853 33.2207 40.1151L32.2407 41.0939C31.3095 42.0251 29.6221 41.9079 27.9904 41.7947C26.2184 41.6715 24.386 41.5444 23.2003 42.7618L19.143 46.8141L8.99708 36.683L12.5876 33.0989C13.1811 33.4627 13.8659 33.6577 14.5824 33.6577C15.6061 33.6577 16.5659 33.2609 17.2829 32.5426C18.0047 31.8238 18.4022 30.8645 18.4022 29.8412C18.4022 29.8317 18.4016 29.8223 18.4016 29.8127C18.4111 29.8129 18.4206 29.8134 18.4301 29.8134C19.4523 29.8134 20.4115 29.4178 21.1294 28.7007C21.8512 27.9819 22.2487 27.0225 22.2487 25.9993C22.2487 25.9898 22.2481 25.9804 22.2481 25.9708C22.2577 25.9708 22.2673 25.9715 22.2771 25.9715C23.299 25.9715 24.2586 25.5763 24.9814 24.8565C25.7317 24.105 26.1028 23.1156 26.0957 22.1283C26.1055 22.1284 26.1154 22.1289 26.1252 22.1289C27.1488 22.1288 28.1086 21.7321 28.8267 21.0128C29.5462 20.2941 29.9426 19.3351 29.9426 18.3124C29.9426 17.5972 29.7481 16.9135 29.3856 16.3212L32.5326 13.1755C32.7671 12.942 33.0563 12.7954 33.3594 12.7349C33.3922 12.7314 33.4246 12.7262 33.4566 12.7198C33.9429 12.6528 34.4536 12.8029 34.8254 13.1732C35.4553 13.8042 35.4553 14.8308 34.8277 15.4595L33.8693 16.414C33.8661 16.4171 33.8627 16.42 33.8595 16.4232L32.7556 17.5252C32.3251 17.9551 32.3247 18.6526 32.7546 19.0829C33.1847 19.5134 33.8821 19.5138 34.3124 19.0839L35.2746 18.123C35.2749 18.1227 35.2751 18.1225 35.2753 18.1223L35.4208 17.9774C36.0524 17.3515 37.0757 17.3528 37.7067 17.983C38.0103 18.2853 38.1776 18.6903 38.1776 19.1234C38.1776 19.5564 38.0103 19.9614 37.7043 20.2662L36.7404 21.2321C36.7403 21.2322 36.7402 21.2323 36.74 21.2325L35.6362 22.3318C35.2052 22.7611 35.2038 23.4586 35.6331 23.8895C36.0624 24.3206 36.7597 24.3219 37.1908 23.8927L38.2996 22.7884C38.6027 22.4847 39.0088 22.3176 39.4432 22.3176C39.8778 22.3176 40.284 22.4847 40.5893 22.7905C40.8929 23.093 41.06 23.498 41.06 23.9311C41.06 24.3641 40.8929 24.7691 40.5875 25.0732L38.6658 26.9957C38.2357 27.426 38.2359 28.1233 38.666 28.5534C38.8812 28.7684 39.1629 28.8758 39.4448 28.8758C39.7267 28.8758 40.0087 28.7682 40.2238 28.5531L41.1656 27.6109C41.1709 27.6058 41.1767 27.6013 41.1821 27.5959C41.4852 27.2923 41.8913 27.1252 42.3257 27.1252C42.7603 27.1252 43.1664 27.2923 43.4705 27.597C44.0998 28.2256 44.0992 29.2504 43.4705 29.8802L42.513 30.8367C42.5126 30.837 42.5122 30.8374 42.5119 30.8377C42.5115 30.838 42.5112 30.8385 42.5109 30.8388L40.991 32.3568C40.5606 32.7868 40.5602 33.4842 40.99 33.9146C41.2052 34.13 41.4874 34.2377 41.7694 34.2377C42.0511 34.2377 42.3328 34.1303 42.5479 33.9156L43.2913 33.1731L46.8544 36.732L36.7093 46.8647L33.0743 43.2341C33.3278 43.0712 33.5702 42.8796 33.7979 42.6519L34.7773 41.6737C35.2079 41.244 35.2084 40.5465 34.7784 40.1161ZM53.2713 41.4802L41.4653 53.2719C41.1891 53.5478 40.8194 53.6997 40.4243 53.6997C40.0293 53.6997 39.6596 53.5478 39.3833 53.2718L37.4368 51.3277C37.1609 51.0523 37.009 50.6837 37.009 50.2898C37.009 49.8961 37.1609 49.5275 37.4368 49.252L49.2428 37.4602C49.5191 37.1843 49.8887 37.0324 50.2838 37.0324C50.6789 37.0324 51.0486 37.1843 51.3255 37.4609L53.2714 39.4013C53.5473 39.6768 53.6992 40.0459 53.6992 40.4407C53.6991 40.8357 53.5472 41.2048 53.2713 41.4802Z" fill="#1A2F36"/>
<path d="M13.2753 6.18742C13.4904 6.40201 13.7719 6.5092 14.0534 6.5092C14.3356 6.5092 14.6179 6.40135 14.8331 6.18578C15.2628 5.75517 15.2621 5.05779 14.8315 4.62806L10.8177 0.622198C10.3872 0.192463 9.68971 0.19301 9.25997 0.623729C8.83024 1.05434 8.8309 1.75171 9.26151 2.18145L13.2753 6.18742Z" fill="#FBAF1A"/>
<path d="M41.7508 6.50916C42.0325 6.50916 42.3142 6.40175 42.5293 6.18705L46.54 2.18108C46.9704 1.75123 46.9709 1.05375 46.5409 0.62336C46.1111 0.192969 45.4137 0.192531 44.9832 0.622485L40.9724 4.62845C40.542 5.0583 40.5416 5.75578 40.9715 6.18617C41.1867 6.40153 41.4688 6.50916 41.7508 6.50916Z" fill="#FBAF1A"/>
<path d="M6.87105 47.3818C6.4446 47.8156 6.4505 48.5131 6.8844 48.9395L6.88757 48.9426C7.10161 49.153 7.37954 49.2578 7.65735 49.2578C7.94249 49.2578 8.22763 49.1474 8.44364 48.9277C8.8701 48.4939 8.86255 47.7949 8.42877 47.3684C7.9951 46.942 7.29772 46.948 6.87105 47.3818Z" fill="black"/>
<path d="M37.4725 38.5293C37.6401 38.5293 37.8101 38.4911 37.9696 38.4107C38.5128 38.1367 38.731 37.4743 38.4571 36.9312C38.1831 36.388 37.5207 36.1697 36.9776 36.4437L36.9715 36.4468C36.4283 36.7207 36.2132 37.3816 36.4871 37.9247C36.6804 38.3084 37.0694 38.5293 37.4725 38.5293Z" fill="black"/>
</g>
<defs>
<clipPath id="clip0_1_1670">
<rect width="56" height="56" fill="white"/>
</clipPath>
</defs>
</svg>
