<svg width="62" height="22" viewBox="0 0 62 22" fill="none" xmlns="http://www.w3.org/2000/svg">
<path d="M3.80769 1.17057C4.58917 0.698826 5.5714 0.73136 6.33855 1.23564C7.28493 1.84566 7.90151 2.91928 8.3532 4.00918C7.7151 4.39146 7.06984 4.77373 6.43175 5.14788C6.20233 4.58666 5.95856 4.01731 5.56423 3.58623C5.36349 3.36663 5.06236 3.19582 4.78992 3.34223C4.40993 3.53743 4.17334 3.95224 3.95825 4.34265C3.35601 5.52202 3.04771 6.86405 2.86131 8.19796C2.61037 10.1012 2.61754 12.0451 2.88998 13.9484C3.08356 15.2335 3.39185 16.5267 3.97976 17.6573C4.18768 18.0314 4.42427 18.43 4.78275 18.617C5.04085 18.7553 5.32764 18.617 5.52839 18.4137C5.95139 17.9826 6.19516 17.3889 6.43175 16.8114C7.06984 17.1937 7.7151 17.5759 8.3532 17.9582C7.89434 19.0562 7.26342 20.1461 6.3027 20.7562C5.54272 21.2442 4.56766 21.2604 3.79335 20.7968C2.91149 20.2763 2.29491 19.3409 1.8504 18.3568C1.26966 17.0635 0.939861 15.6483 0.731944 14.2249C0.4595 12.2322 0.437991 10.1988 0.674587 8.19796C0.860996 6.66885 1.18363 5.14788 1.7787 3.76517C2.23755 2.72408 2.87564 1.71552 3.80769 1.17057Z" fill="#ED1B23"/>
<path d="M14.597 0.966956C15.3068 0.722949 16.1027 0.820552 16.7551 1.22723C17.5437 1.71524 18.1173 2.54486 18.5403 3.43142C19.2143 4.88732 19.5656 6.51403 19.7591 8.13261C19.9957 10.0196 19.9025 11.9228 19.924 13.8261C19.924 16.193 19.924 18.5679 19.924 20.9348C19.1999 20.9348 18.4758 20.9348 17.7517 20.9348C17.7517 18.4703 17.7517 16.014 17.7517 13.5496C16.1887 13.5496 14.6257 13.5496 13.0628 13.5496C13.0628 16.014 13.0628 18.4703 13.0628 20.9348C12.3386 20.9348 11.6145 20.9348 10.8904 20.9348C10.8976 17.4293 10.8832 13.9237 10.8976 10.4181C10.9334 8.68569 11.1413 6.94511 11.6002 5.28587C11.8941 4.24477 12.2884 3.21995 12.8907 2.35779C13.3352 1.73151 13.9088 1.20283 14.597 0.966956ZM14.4895 4.01704C14.045 4.73279 13.7797 5.57054 13.5718 6.4083C13.2062 7.92927 13.0628 9.50718 13.0556 11.077C14.6186 11.077 16.1815 11.077 17.7445 11.077C17.7373 9.2225 17.5581 7.33552 16.9989 5.57868C16.7838 4.91986 16.5257 4.26104 16.1098 3.73236C15.8947 3.46395 15.5864 3.21995 15.2566 3.30942C14.9268 3.40702 14.6903 3.71609 14.4895 4.01704Z" fill="#ED1B23"/>
<path d="M27.6386 0.959696C28.4129 0.683155 29.2876 0.845826 29.9544 1.35824C30.8434 2.02519 31.4241 3.09068 31.84 4.17245C32.4781 5.88049 32.7792 7.73494 32.8867 9.58125C32.9584 10.964 32.9154 12.3467 32.9297 13.7212C32.9297 16.1206 32.9297 18.5119 32.9297 20.9113C32.2056 20.9113 31.4815 20.9113 30.7574 20.9113C30.7574 18.3818 30.7574 15.8522 30.7574 13.3146C30.743 11.639 30.8219 9.94726 30.5925 8.27989C30.3989 6.84838 30.0834 5.40874 29.4095 4.16431C29.1801 3.7739 28.8861 3.31842 28.4416 3.26962C27.9684 3.29402 27.6673 3.79017 27.4235 4.19685C26.7424 5.48195 26.4126 6.97039 26.219 8.43442C26.0111 9.93913 26.0685 11.4682 26.0613 12.9892C26.0613 15.6245 26.0613 18.2679 26.0613 20.9031C25.3372 20.9031 24.613 20.9031 23.8889 20.9031C23.8889 14.3394 23.8889 7.78374 23.8889 1.21997C24.613 1.21997 25.3372 1.21997 26.0613 1.21997C26.0613 1.57785 26.0613 1.92759 26.0613 2.28546C26.4628 1.70798 26.9933 1.18743 27.6386 0.959696Z" fill="#ED1B23"/>
<path d="M54.804 1.91865C55.3561 1.28423 56.1089 0.845021 56.9047 0.836888C57.679 0.804353 58.439 1.18663 58.9982 1.77225C59.751 2.55307 60.2314 3.60229 60.5898 4.66779C61.0774 6.16436 61.3283 7.7504 61.4359 9.33644C61.5076 10.3938 61.486 11.4593 61.486 12.5248C61.486 15.3227 61.486 18.1288 61.486 20.9267C60.7619 20.9267 60.0378 20.9267 59.3137 20.9267C59.3137 18.4623 59.3137 16.006 59.3137 13.5415C57.7507 13.5415 56.1949 13.5415 54.6319 13.5415C54.6319 16.006 54.6319 18.4623 54.6319 20.9267C53.9078 20.9267 53.1837 20.9267 52.4596 20.9267C52.4596 17.4456 52.4524 13.9726 52.4667 10.4914C52.5026 8.64509 52.732 6.79064 53.2482 5.0338C53.578 3.8951 54.044 2.78081 54.804 1.91865ZM56.0085 4.09844C55.5783 4.83046 55.313 5.66821 55.1123 6.5141C54.7682 8.00254 54.6319 9.53978 54.6248 11.077C56.1877 11.077 57.7507 11.077 59.3065 11.077C59.2993 9.34458 59.1488 7.604 58.6756 5.95289C58.4533 5.2046 58.188 4.45632 57.7435 3.83817C57.5356 3.55349 57.2417 3.26882 56.8975 3.30135C56.5032 3.36642 56.2307 3.7487 56.0085 4.09844Z" fill="#ED1B23"/>
<path d="M36.9094 1.24414C37.6336 1.24414 38.3505 1.24414 39.0746 1.24414C39.0746 7.79978 39.0746 14.3635 39.0746 20.9273C38.3505 20.9273 37.6336 20.9273 36.9094 20.9273C36.9094 14.3635 36.9094 7.80791 36.9094 1.24414Z" fill="#ED1B23"/>
<path d="M43.0537 1.24414C45.3408 1.24414 47.6279 1.24414 49.9222 1.24414C49.9222 2.06563 49.9222 2.87898 49.9222 3.70047C48.3592 3.70047 46.7891 3.70047 45.2261 3.70047C45.2261 5.75012 45.2261 7.79978 45.2261 9.84943C46.7891 9.84943 48.3592 9.84943 49.9222 9.84943C49.9222 10.6709 49.9222 11.4924 49.9222 12.3139C48.3592 12.3139 46.7962 12.3139 45.2261 12.3139C45.2261 15.185 45.2261 18.0562 45.2261 20.9273C44.502 20.9273 43.7778 20.9273 43.0537 20.9273C43.0537 14.3635 43.0537 7.80791 43.0537 1.24414Z" fill="#ED1B23"/>
</svg>
