<svg width="42" height="22" viewBox="0 0 42 22" fill="none" xmlns="http://www.w3.org/2000/svg">
<path d="M28.7579 6.34058C28.7579 4.34453 28.7579 2.34322 28.7579 0.347168C29.5519 0.347168 30.3413 0.347168 31.1354 0.347168C31.1354 5.62095 31.1354 10.8947 31.1354 16.1685C30.4628 16.1685 29.7901 16.1685 29.1175 16.1685C29.0054 15.8954 28.8887 15.6222 28.7766 15.3491C28.3515 15.68 27.8844 15.9479 27.3893 16.1107C26.0301 16.5625 24.5027 16.1528 23.3956 15.1757C22.3027 14.225 21.6114 12.7227 21.5413 11.1679C22.3494 11.1679 23.1574 11.1679 23.9655 11.1679C24.0402 11.8665 24.3579 12.5231 24.8436 12.9643C25.3855 13.4686 26.1281 13.6839 26.8148 13.5369C27.478 13.4056 28.0806 12.9486 28.4402 12.3077C28.7719 11.7247 28.8887 10.9945 28.7672 10.3169C28.6318 9.5185 28.1506 8.80938 27.5107 8.43643C26.8661 8.05298 26.0674 8.02146 25.3995 8.35239C24.6194 8.73059 24.0542 9.59204 23.9608 10.5375C23.1528 10.5375 22.3447 10.5375 21.5366 10.5375C21.6114 8.90393 22.368 7.33335 23.5545 6.38785C24.7969 5.37932 26.5205 5.09567 27.9311 5.8048C28.2254 5.95713 28.501 6.14097 28.7579 6.34058Z" fill="#FCAF17"/>
<path d="M32.0881 5.73121C32.8775 5.7207 33.6622 5.72596 34.4516 5.72596C34.4516 7.31229 34.4516 8.89338 34.4516 10.4797C34.4563 10.8947 34.4236 11.3254 34.5404 11.7246C34.8066 12.7279 35.6614 13.4685 36.5769 13.5683C37.3336 13.6629 38.1136 13.3004 38.6134 12.6544C38.9591 12.2184 39.1646 11.6406 39.1646 11.0523C39.1693 9.27683 39.1646 7.49614 39.1646 5.7207C39.954 5.7207 40.7434 5.7207 41.5327 5.7207C41.5327 9.30309 41.5327 12.8802 41.5327 16.4626C41.5187 18.1855 40.6873 19.8559 39.3981 20.7856C38.492 21.458 37.3803 21.7522 36.306 21.6208C34.8813 21.4633 33.5501 20.5178 32.7981 19.1468C32.3357 18.3168 32.0928 17.3398 32.0881 16.3576C32.8402 16.3576 33.5968 16.3576 34.3489 16.3576C34.3489 17.177 34.7552 17.9649 35.3671 18.4061C36.1425 18.9787 37.2028 19.047 38.0155 18.548C38.5013 18.2486 38.8843 17.739 39.0525 17.1455C39.2253 16.5572 39.1459 15.9216 39.1646 15.3123C38.8049 15.6694 38.4032 15.9846 37.9455 16.158C37.1981 16.4311 36.3807 16.3838 35.624 16.179C34.148 15.764 32.8962 14.4928 32.3777 12.8855C32.1862 12.2972 32.0881 11.6773 32.0881 11.0523C32.0881 9.28208 32.0928 7.50664 32.0881 5.73121Z" fill="#FCAF17"/>
<path d="M13.2969 6.29834C14.2451 5.59447 15.4222 5.29507 16.5525 5.45265C17.9351 5.63124 19.2196 6.52421 19.9903 7.82165C20.4714 8.62532 20.7564 9.57607 20.8077 10.5426C19.995 10.5426 19.1823 10.5426 18.3695 10.5426C18.2995 9.88599 18.0099 9.25565 17.5614 8.81967C17.0523 8.31016 16.3423 8.06328 15.6651 8.16308C14.9878 8.25238 14.3525 8.6831 13.9695 9.31343C13.5818 9.93326 13.4464 10.7422 13.6052 11.4776C13.764 12.2602 14.2544 12.9431 14.899 13.295C15.5623 13.6627 16.375 13.6627 17.0383 13.2898C17.7576 12.8906 18.2714 12.0659 18.3648 11.1677C19.1776 11.1677 19.9903 11.1677 20.8031 11.1677C20.7283 12.796 19.9576 14.3613 18.7665 15.2963C17.8324 16.0475 16.6553 16.3994 15.5109 16.2786C14.1003 16.1473 12.7644 15.2701 11.961 13.9569C11.3071 12.9116 11.0081 11.5984 11.1202 10.3272C11.251 8.69886 12.0825 7.18081 13.2969 6.29834Z" fill="#2A2A86"/>
<path d="M0.89624 5.72607C1.68096 5.72607 2.47034 5.72607 3.25506 5.72607C3.25506 7.25988 3.25506 8.78844 3.25506 10.3222C3.2644 10.7792 3.21769 11.2467 3.33446 11.6932C3.53998 12.5179 4.1472 13.1745 4.86185 13.4476C5.37099 13.6473 5.94551 13.6367 6.44997 13.4161C7.14594 13.1272 7.72513 12.4549 7.9073 11.6354C7.99137 11.294 7.97269 10.9368 7.97269 10.5849C7.97269 8.96703 7.97269 7.34393 7.97269 5.72607C8.76208 5.72607 9.55146 5.72607 10.3408 5.72607C10.3408 8.83571 10.3408 11.9401 10.3408 15.0497C10.3268 15.9007 10.4016 16.7674 10.2101 17.6026C9.87376 19.2099 8.8228 20.5967 7.46823 21.2322C6.38925 21.7523 5.13277 21.7943 4.02576 21.3478C2.72724 20.833 1.6576 19.6512 1.18584 18.1961C0.989659 17.6131 0.89624 16.988 0.89624 16.3629C1.64826 16.3629 2.40495 16.3629 3.15697 16.3629C3.15697 17.0826 3.46525 17.7759 3.9557 18.2277C4.89455 19.1206 6.4453 19.1259 7.32343 18.1279C7.69243 17.7129 7.92598 17.1508 7.96335 16.5678C7.98203 16.1528 7.96802 15.7326 7.97269 15.3176C7.59435 15.6958 7.16462 16.0268 6.67884 16.1896C5.88479 16.447 5.02534 16.3787 4.23595 16.1213C2.78329 15.6328 1.5782 14.3091 1.12512 12.6807C0.970975 12.1397 0.89624 11.5724 0.900911 11.0051C0.89624 9.24543 0.89624 7.48575 0.89624 5.72607Z" fill="#2A2A86"/>
</svg>
