                    <svg class="logo" width="114" height="38" viewBox="0 0 114 38" fill="none"
                        xmlns="http://www.w3.org/2000/svg">
                        <path
                            d="M12.4365 10.5699C12.4365 9.20013 12.4562 7.82824 12.4365 6.45421C12.4365 6.0917 12.5592 5.93976 12.8966 5.8182C17.4886 4.14243 22.0785 2.45363 26.664 0.751815C27.1241 0.580331 27.2839 0.682353 27.4461 1.11432C30.6579 9.71458 33.8806 18.3149 37.1143 26.9108C37.2524 27.2733 37.2918 27.4795 36.812 27.6531C28.0661 30.8506 19.329 34.0632 10.5984 37.2931C10.2018 37.4386 10.0967 37.3366 9.96519 36.9806C6.72274 28.3239 3.47588 19.6715 0.21807 11.0213C0.0778548 10.6502 0.121672 10.5047 0.511645 10.368C2.68936 9.59084 4.8605 8.79421 7.02508 7.98237C7.46105 7.81741 7.5969 7.87383 7.56841 8.34491C7.53554 8.88755 7.5903 9.43456 7.55089 9.97726C7.51803 10.4222 7.64512 10.5633 8.11611 10.5547C9.55993 10.5264 11.0058 10.5547 12.4518 10.5547C12.4518 12.0068 12.4759 13.4612 12.4518 14.9069C12.4518 15.3085 12.5658 15.417 12.9667 15.4105C14.2265 15.3844 15.4906 15.4344 16.7547 15.3866C17.3112 15.367 17.4185 15.5364 17.4163 16.0551C17.3944 20.5094 17.4076 24.9615 17.3988 29.4157C17.3988 29.8021 17.4076 30.0409 17.9312 30.0366C20.8647 30.0105 23.7918 30.017 26.7209 30.0366C27.1437 30.0366 27.2182 29.8868 27.2161 29.5112C27.2073 23.366 27.2073 17.2186 27.2161 11.0734C27.2161 10.6979 27.1393 10.5547 26.7209 10.5568C21.958 10.5742 17.1972 10.5699 12.4343 10.572L12.4365 10.5699Z"
                            fill="white" />
                        <path
                            d="M5.1177 5.70336C4.42758 5.70336 3.73745 5.69468 3.04076 5.70336C2.75376 5.70336 2.58944 5.66429 2.59164 5.31915C2.60697 3.93208 2.60259 2.54501 2.59164 1.15794C2.59164 0.877925 2.68146 0.76722 2.97722 0.771561C4.38376 0.788926 5.78591 0.791097 7.18804 0.775902C7.486 0.775902 7.56709 0.880095 7.56709 1.16228C7.55612 2.54936 7.55174 3.93642 7.56709 5.32349C7.56709 5.6708 7.41589 5.71638 7.12674 5.70987C6.45849 5.69468 5.7881 5.70554 5.11989 5.70554L5.1177 5.70336Z"
                            fill="white" />
                        <path
                            d="M51.5468 30.0287C49.7536 30.0287 48.1257 29.5951 46.6632 28.7279C45.2007 27.8608 44.0516 26.6901 43.2159 25.2159C42.3802 23.7243 41.9623 22.0854 41.9623 20.299C41.9623 18.5299 42.3802 16.8996 43.2159 15.4081C44.0516 13.9165 45.2007 12.7372 46.6632 11.87C48.1257 11.0028 49.7536 10.5692 51.5468 10.5692C53.3401 10.5692 54.968 11.0028 56.4305 11.87C57.893 12.7372 59.0421 13.9165 59.8778 15.4081C60.7309 16.8996 61.1575 18.5299 61.1575 20.299C61.1575 22.0854 60.7396 23.7243 59.9039 25.2159C59.0682 26.6901 57.9104 27.8608 56.4305 28.7279C54.968 29.5951 53.3401 30.0287 51.5468 30.0287ZM51.5468 27.9215C52.8875 27.9215 54.1149 27.6006 55.2292 26.9589C56.3609 26.2998 57.2488 25.398 57.893 24.2533C58.5546 23.0913 58.8854 21.7732 58.8854 20.299C58.8854 18.8248 58.5546 17.5153 57.893 16.3706C57.2488 15.2086 56.3609 14.3068 55.2292 13.665C54.1149 13.006 52.8875 12.6765 51.5468 12.6765C50.2062 12.6765 48.9788 13.006 47.8645 13.665C46.7502 14.3068 45.8623 15.2086 45.2007 16.3706C44.5391 17.5327 44.2083 18.8421 44.2083 20.299C44.2083 21.7558 44.5391 23.0653 45.2007 24.2273C45.8623 25.3893 46.7502 26.2998 47.8645 26.9589C48.9788 27.6006 50.2062 27.9215 51.5468 27.9215Z"
                            fill="white" />
                        <path
                            d="M65.5241 18.3477H63.0692V16.3445H65.5241V14.9137C65.5241 14.0812 65.7156 13.3528 66.0987 12.7284C66.4817 12.104 66.9953 11.6271 67.6395 11.2975C68.2837 10.9507 68.9975 10.7772 69.781 10.7772C70.5296 10.7772 71.1825 10.8813 71.7397 11.0894V13.2487C71.4263 13.1273 71.1303 13.0319 70.8517 12.9625C70.5732 12.8758 70.2424 12.8325 69.8593 12.8325C69.2848 12.8325 68.7886 13.0406 68.3707 13.4568C67.9529 13.8557 67.7439 14.4194 67.7439 15.1478V16.3445H73.8028V14.9137C73.8028 14.0812 73.9856 13.3528 74.3513 12.7284C74.7343 12.104 75.2479 11.6271 75.8921 11.2975C76.5537 10.9507 77.2762 10.7772 78.0597 10.7772C78.7735 10.7772 79.4264 10.8813 80.0184 11.0894V13.2487C79.6702 13.1099 79.3568 13.0059 79.0782 12.9365C78.8171 12.8671 78.495 12.8325 78.1119 12.8325C77.5374 12.8325 77.0412 13.0406 76.6233 13.4568C76.2055 13.8557 75.9965 14.4194 75.9965 15.1478V16.3445H84.2492V29.6124H82.0554V18.3477H75.9965V29.6124H73.8028V18.3477H67.7439V29.6124H65.5241V18.3477ZM83.1523 14.0552C82.717 14.0552 82.3427 13.8991 82.0293 13.5869C81.7159 13.2747 81.5592 12.9018 81.5592 12.4682C81.5592 12.0173 81.7159 11.6444 82.0293 11.3496C82.3427 11.0374 82.717 10.8813 83.1523 10.8813C83.605 10.8813 83.9793 11.0374 84.2753 11.3496C84.5887 11.6444 84.7454 12.0173 84.7454 12.4682C84.7454 12.9018 84.5887 13.2747 84.2753 13.5869C83.9793 13.8991 83.605 14.0552 83.1523 14.0552Z"
                            fill="white" />
                        <path
                            d="M93.6582 30.0288C92.3699 30.0288 91.212 29.7253 90.1848 29.1183C89.1576 28.4939 88.3567 27.6528 87.7822 26.5948C87.2076 25.5195 86.9203 24.3141 86.9203 22.9787C86.9203 21.6432 87.2076 20.4378 87.7822 19.3625C88.3567 18.2872 89.1576 17.4461 90.1848 16.839C91.212 16.232 92.3699 15.9285 93.6582 15.9285C95.1033 15.9285 96.3133 16.2667 97.2883 16.9431C98.2807 17.6022 98.9859 18.4867 99.4037 19.5967L97.3928 20.4292C97.062 19.614 96.5658 18.9983 95.9042 18.5821C95.26 18.1485 94.4765 17.9317 93.5538 17.9317C92.7703 17.9317 92.0391 18.1485 91.36 18.5821C90.681 18.9983 90.1326 19.588 89.7147 20.3511C89.3143 21.1142 89.1141 21.9901 89.1141 22.9787C89.1141 23.9673 89.3143 24.8431 89.7147 25.6062C90.1326 26.3693 90.681 26.9677 91.36 27.4013C92.0391 27.8175 92.7703 28.0257 93.5538 28.0257C94.4939 28.0257 95.3035 27.8089 95.9825 27.3753C96.6616 26.9417 97.1665 26.326 97.4973 25.5282L99.4821 26.3607C99.0294 27.4533 98.2981 28.3378 97.2883 29.0142C96.2959 29.6906 95.0859 30.0288 93.6582 30.0288Z"
                            fill="white" />
                        <path
                            d="M107.683 30.0288C106.412 30.0288 105.271 29.7253 104.262 29.1183C103.252 28.5113 102.46 27.6788 101.885 26.6208C101.328 25.5455 101.049 24.3401 101.049 23.0047C101.049 21.7213 101.311 20.5419 101.833 19.4666C102.373 18.3913 103.13 17.5328 104.105 16.8911C105.08 16.2494 106.212 15.9285 107.5 15.9285C108.806 15.9285 109.938 16.2233 110.895 16.813C111.853 17.3854 112.584 18.1832 113.089 19.2064C113.611 20.2297 113.872 21.4004 113.872 22.7185C113.872 22.9787 113.846 23.2041 113.794 23.3949H103.269C103.321 24.4008 103.565 25.2507 104.001 25.9444C104.436 26.6382 104.984 27.1585 105.646 27.5053C106.325 27.8522 107.03 28.0257 107.761 28.0257C109.467 28.0257 110.782 27.2278 111.705 25.6322L113.585 26.5428C113.01 27.6181 112.227 28.4679 111.235 29.0923C110.26 29.7167 109.076 30.0288 107.683 30.0288ZM111.522 21.5738C111.487 21.0188 111.33 20.4638 111.052 19.9089C110.773 19.3539 110.329 18.8856 109.72 18.504C109.128 18.1225 108.379 17.9317 107.474 17.9317C106.429 17.9317 105.541 18.2699 104.81 18.9463C104.096 19.6053 103.626 20.4812 103.4 21.5738H111.522Z"
                            fill="white" />
                    </svg>