<svg width="41" height="40" viewBox="0 0 41 40" fill="none" xmlns="http://www.w3.org/2000/svg">
<path fill-rule="evenodd" clip-rule="evenodd" d="M11.1215 5.86839C11.3589 5.58225 11.7115 5.41669 12.0834 5.41669H28.9167C29.2885 5.41669 29.6411 5.58225 29.8786 5.86839C30.1161 6.15454 30.2138 6.53156 30.1453 6.89705C30.1058 7.1077 30.0834 7.31192 30.0834 7.50002C30.0834 9.10966 31.3904 10.4167 33 10.4167C33.1881 10.4167 33.3923 10.3943 33.603 10.3548C33.9685 10.2862 34.3455 10.384 34.6316 10.6215C34.9178 10.8589 35.0834 11.2115 35.0834 11.5834V28.4167C35.0834 28.7885 34.9178 29.1411 34.6316 29.3786C34.3455 29.6161 33.9685 29.7138 33.603 29.6453C33.3923 29.6058 33.1881 29.5834 33 29.5834C31.3904 29.5834 30.0834 30.8904 30.0834 32.5C30.0834 32.6881 30.1058 32.8923 30.1453 33.103C30.2138 33.4685 30.1161 33.8455 29.8786 34.1316C29.6411 34.4178 29.2885 34.5834 28.9167 34.5834H12.0834C11.7115 34.5834 11.3589 34.4178 11.1215 34.1316C10.884 33.8455 10.7862 33.4685 10.8548 33.103C10.8943 32.8923 10.9167 32.6881 10.9167 32.5C10.9167 30.8904 9.60966 29.5834 8.00002 29.5834C7.81192 29.5834 7.6077 29.6058 7.39705 29.6453C7.03156 29.7138 6.65454 29.6161 6.36839 29.3786C6.08225 29.1411 5.91669 28.7885 5.91669 28.4167V11.5834C5.91669 11.2115 6.08225 10.8589 6.36839 10.6215C6.65454 10.384 7.03156 10.2862 7.39705 10.3548C7.60771 10.3943 7.81192 10.4167 8.00002 10.4167C9.60966 10.4167 10.9167 9.10966 10.9167 7.50002C10.9167 7.31192 10.8943 7.10771 10.8548 6.89705C10.7862 6.53156 10.884 6.15454 11.1215 5.86839ZM13.4009 7.91669C13.1984 10.575 11.075 12.6984 8.41669 12.9009V27.0992C11.075 27.3016 13.1984 29.425 13.4009 32.0834H27.5992C27.8016 29.425 29.925 27.3016 32.5834 27.0992V12.9009C29.925 12.6984 27.8016 10.575 27.5992 7.91669H13.4009Z" fill="#FBAF1A"/>
<path fill-rule="evenodd" clip-rule="evenodd" d="M7.99998 4.58331C6.39034 4.58331 5.08331 5.89034 5.08331 7.49998C5.08331 8.9082 6.08271 10.0854 7.40571 10.3563C7.61329 10.3948 7.81447 10.4166 7.99998 10.4166C9.60962 10.4166 10.9166 9.10962 10.9166 7.49998C10.9166 7.31447 10.8948 7.11329 10.8563 6.90571C10.5854 5.58271 9.4082 4.58331 7.99998 4.58331ZM2.58331 7.49998C2.58331 4.50962 5.00962 2.08331 7.99998 2.08331C10.6222 2.08331 12.8097 3.94648 13.3086 6.41943L13.312 6.43626L13.3119 6.43629C13.3724 6.75896 13.4166 7.12141 13.4166 7.49998C13.4166 10.4903 10.9903 12.9166 7.99998 12.9166C7.62141 12.9166 7.25896 12.8724 6.93629 12.8119L6.91941 12.8087L6.91943 12.8086C4.44648 12.3097 2.58331 10.1222 2.58331 7.49998Z" fill="#FBAF1A"/>
<path fill-rule="evenodd" clip-rule="evenodd" d="M30.1436 6.90568C30.1051 7.11327 30.0833 7.31446 30.0833 7.49998C30.0833 9.10962 31.3903 10.4166 33 10.4166C33.1855 10.4166 33.3867 10.3948 33.5943 10.3563C34.9173 10.0854 35.9166 8.9082 35.9166 7.49998C35.9166 5.89034 34.6096 4.58331 33 4.58331C31.5918 4.58331 30.4145 5.58269 30.1436 6.90568ZM27.6913 6.41943C28.1903 3.94648 30.3778 2.08331 33 2.08331C35.9903 2.08331 38.4166 4.50962 38.4166 7.49998C38.4166 10.1222 36.5535 12.3097 34.0805 12.8086L34.0637 12.812L34.0637 12.8119C33.741 12.8724 33.3785 12.9166 33 12.9166C30.0096 12.9166 27.5833 10.4903 27.5833 7.49998C27.5833 7.12142 27.6276 6.75896 27.6881 6.43629L27.6912 6.41941L27.6913 6.41943Z" fill="#FBAF1A"/>
<path fill-rule="evenodd" clip-rule="evenodd" d="M7.40568 29.6436C6.08269 29.9145 5.08331 31.0918 5.08331 32.5C5.08331 34.1096 6.39034 35.4166 7.99998 35.4166C9.4082 35.4166 10.5854 34.4173 10.8563 33.0943C10.8948 32.8867 10.9166 32.6855 10.9166 32.5C10.9166 30.8903 9.60962 29.5833 7.99998 29.5833C7.81446 29.5833 7.61327 29.6051 7.40568 29.6436ZM6.93629 27.1881C7.25896 27.1276 7.62142 27.0833 7.99998 27.0833C10.9903 27.0833 13.4166 29.5096 13.4166 32.5C13.4166 32.8785 13.3724 33.241 13.3119 33.5637L13.3087 33.5805L13.3086 33.5805C12.8097 36.0535 10.6222 37.9166 7.99998 37.9166C5.00962 37.9166 2.58331 35.4903 2.58331 32.5C2.58331 29.8778 4.44648 27.6903 6.91943 27.1913L6.93626 27.1879L6.93629 27.1881Z" fill="#FBAF1A"/>
<path fill-rule="evenodd" clip-rule="evenodd" d="M33 29.5833C31.3903 29.5833 30.0833 30.8903 30.0833 32.5C30.0833 32.6855 30.1051 32.8867 30.1436 33.0943C30.4145 34.4173 31.5918 35.4166 33 35.4166C34.6096 35.4166 35.9166 34.1096 35.9166 32.5C35.9166 31.0918 34.9173 29.9145 33.5943 29.6436C33.3867 29.6051 33.1855 29.5833 33 29.5833ZM27.5833 32.5C27.5833 29.5096 30.0096 27.0833 33 27.0833C33.3785 27.0833 33.741 27.1276 34.0637 27.1881L34.0805 27.1912L34.0805 27.1913C36.5535 27.6903 38.4166 29.8778 38.4166 32.5C38.4166 35.4903 35.9903 37.9166 33 37.9166C30.3778 37.9166 28.1903 36.0535 27.6913 33.5805L27.6879 33.5637L27.6881 33.5637C27.6276 33.241 27.5833 32.8785 27.5833 32.5Z" fill="#FBAF1A"/>
</svg>
