<svg width="41" height="40" viewBox="0 0 41 40" fill="none" xmlns="http://www.w3.org/2000/svg">
<path d="M21.9317 5.77563V7.8388H23.4448C27.2233 7.8388 30.1845 11.0371 30.1845 14.8536C30.1845 15.5373 29.6303 16.0915 28.9466 16.0915C28.2629 16.0915 27.7087 15.5373 27.7087 14.8536C27.7087 12.2892 25.7434 10.3146 23.4448 10.3146H21.9317V19.7523L26.0761 21.2028C28.5604 22.0723 30.1845 24.4867 30.1845 27.1486C30.1845 30.5558 27.5393 33.4223 24.1506 33.4223H21.9317V35.4855C21.9317 36.1691 21.3775 36.7234 20.6938 36.7234C20.0101 36.7234 19.4559 36.1691 19.4559 35.4855V33.4223H17.9428C14.1644 33.4223 11.2031 30.224 11.2031 26.4075C11.2031 25.7238 11.7574 25.1696 12.441 25.1696C13.1247 25.1696 13.6789 25.7238 13.6789 26.4075C13.6789 28.9719 15.6442 30.9465 17.9428 30.9465H19.4559V21.5088L15.3115 20.0583C12.8273 19.1888 11.2032 16.7744 11.2032 14.1125C11.2032 10.7052 13.8484 7.8388 17.2371 7.8388H19.4559V5.77563C19.4559 5.09196 20.0102 4.53772 20.6938 4.53772C21.3775 4.53772 21.9317 5.09196 21.9317 5.77563ZM19.4559 10.3146H17.2371C15.3282 10.3146 13.679 11.9574 13.679 14.1125C13.679 15.7857 14.6968 17.22 16.1294 17.7215L19.4559 18.8858V10.3146V10.3146ZM21.9317 22.3754V30.9465H24.1506C26.0594 30.9465 27.7087 29.3037 27.7087 27.1486C27.7087 25.4754 26.691 24.0411 25.2583 23.5397L21.9318 22.3753H21.9317V22.3754Z" fill="#6E62FF"/>
</svg>
