<svg width="41" height="40" viewBox="0 0 41 40" fill="none" xmlns="http://www.w3.org/2000/svg">
<path fill-rule="evenodd" clip-rule="evenodd" d="M4.0807 11.3502C5.58742 9.60352 8.16628 8.75 11.954 8.75H29.0466C32.8343 8.75 35.4132 9.60352 36.9199 11.3502C38.4203 13.0896 38.5641 15.3798 38.3234 17.5134L37.0408 30.8532C36.8519 32.5726 36.4084 34.4541 34.8413 35.85C33.293 37.2293 30.895 37.9167 27.3373 37.9167H13.6632C10.1056 37.9167 7.7076 37.2293 6.15926 35.85C4.5922 34.4541 4.14881 32.5725 3.95988 30.8532L3.95803 30.8363L2.6772 17.5134C2.43643 15.3798 2.58022 13.0896 4.0807 11.3502ZM5.97371 12.9831C5.16923 13.9157 4.94347 15.3124 5.16249 17.2424L5.1649 17.2637L6.44584 30.5884C6.6162 32.1314 6.96789 33.2223 7.82218 33.9833C8.69671 34.7623 10.3497 35.4167 13.6632 35.4167H27.3373C30.6509 35.4167 32.3039 34.7623 33.1784 33.9833C34.0327 33.2223 34.3844 32.1313 34.5548 30.5883L35.8379 17.2424C36.0569 15.3124 35.8313 13.9157 35.0269 12.9831C34.2261 12.0548 32.5574 11.25 29.0466 11.25H11.954C8.44315 11.25 6.7745 12.0548 5.97371 12.9831Z" fill="#20AFFF"/>
<path fill-rule="evenodd" clip-rule="evenodd" d="M14.9888 6.75467C14.9165 7.29461 14.9144 7.90873 14.9144 8.66665V9.99998C14.9144 10.6903 14.3547 11.25 13.6644 11.25C12.974 11.25 12.4144 10.6903 12.4144 9.99998L12.4144 8.62248C12.4143 7.91721 12.4143 7.14443 12.5109 6.42289C12.6112 5.67373 12.8263 4.87911 13.3283 4.17089C14.3772 2.69098 16.2913 2.08331 19.134 2.08331H21.8688C24.7115 2.08331 26.6256 2.69098 27.6746 4.17089C28.1765 4.87911 28.3916 5.67373 28.4919 6.42289C28.5885 7.14443 28.5885 7.91722 28.5885 8.62249L28.5885 9.99998C28.5885 10.6903 28.0288 11.25 27.3385 11.25C26.6481 11.25 26.0885 10.6903 26.0885 9.99998V8.66665C26.0885 7.90873 26.0863 7.29461 26.0141 6.75467C25.9434 6.22727 25.8167 5.87293 25.635 5.61657C25.3165 5.16731 24.4958 4.58331 21.8688 4.58331H19.134C16.5071 4.58331 15.6863 5.16731 15.3679 5.61657C15.1862 5.87293 15.0594 6.22727 14.9888 6.75467Z" fill="#20AFFF"/>
<path fill-rule="evenodd" clip-rule="evenodd" d="M18.3334 21.2517C18.3321 21.3704 18.332 21.5059 18.332 21.6667V23.3833C18.332 23.8529 18.3363 24.1958 18.3777 24.4862C18.4174 24.764 18.48 24.8979 18.5333 24.9713C18.5991 25.0618 18.9166 25.4167 20.5006 25.4167C22.0918 25.4167 22.4058 25.0583 22.4701 24.9687C22.5237 24.8941 22.5861 24.758 22.6251 24.4769C22.6659 24.1832 22.6691 23.8387 22.6691 23.3667V21.6667C22.6691 21.5059 22.6691 21.3704 22.6677 21.2517C22.5378 21.25 22.3887 21.25 22.2098 21.25H18.7913C18.6125 21.25 18.4634 21.25 18.3334 21.2517ZM18.7368 18.75C18.755 18.75 18.7731 18.75 18.7913 18.75H22.2098C22.228 18.75 22.2462 18.75 22.2643 18.75C22.6439 18.7499 23.0237 18.7499 23.3326 18.7833C23.6444 18.8171 24.1609 18.9066 24.5781 19.3134C25.0017 19.7265 25.0984 20.2458 25.1343 20.5616C25.1693 20.8682 25.1692 21.2433 25.1691 21.6111C25.1691 21.6297 25.1691 21.6482 25.1691 21.6667V23.3862C25.1691 23.8185 25.1691 24.3326 25.1014 24.8205C25.0309 25.3285 24.8765 25.9038 24.5006 26.4271C23.7061 27.5334 22.3108 27.9167 20.5006 27.9167C18.7002 27.9167 17.3085 27.5382 16.5111 26.4412C16.1328 25.9208 15.9753 25.3475 15.9028 24.8394C15.8321 24.3438 15.832 23.8221 15.832 23.3833V21.6667C15.832 21.6482 15.832 21.6297 15.832 21.6111C15.832 21.2433 15.8319 20.8682 15.8668 20.5616C15.9028 20.2458 15.9994 19.7265 16.423 19.3134C16.8403 18.9066 17.3568 18.8171 17.6685 18.7833C17.9775 18.7499 18.3573 18.7499 18.7368 18.75Z" fill="#20AFFF"/>
<path fill-rule="evenodd" clip-rule="evenodd" d="M38.0153 17.6103C38.4147 18.1734 38.2819 18.9536 37.7188 19.353C33.5937 22.2783 28.8833 24.0166 24.0722 24.6074C23.387 24.6915 22.7633 24.2042 22.6792 23.519C22.595 22.8338 23.0823 22.2101 23.7675 22.126C28.1865 21.5834 32.5009 19.9884 36.2726 17.3137C36.8358 16.9144 37.616 17.0471 38.0153 17.6103Z" fill="#20AFFF"/>
<path fill-rule="evenodd" clip-rule="evenodd" d="M3.42868 18.0886C3.8119 17.5144 4.58807 17.3596 5.16229 17.7428C8.84009 20.1973 12.9899 21.6783 17.2184 22.1399C17.9047 22.2149 18.4003 22.8319 18.3254 23.5182C18.2504 24.2045 17.6333 24.7001 16.9471 24.6252C12.3216 24.1201 7.78837 22.5011 3.7745 19.8223C3.20028 19.439 3.04545 18.6629 3.42868 18.0886Z" fill="#20AFFF"/>
</svg>
