<svg width="41" height="40" viewBox="0 0 41 40" fill="none" xmlns="http://www.w3.org/2000/svg">
<path fill-rule="evenodd" clip-rule="evenodd" d="M26.3628 2.12736C28.3074 1.8787 30.2748 2.6739 32.2738 4.55481L32.2761 4.55698C34.2818 6.4538 35.1949 8.37796 35.0579 10.3378C34.9256 12.2315 33.8277 13.8344 32.5759 15.1569M32.5759 15.1569L18.8993 29.6331C18.5138 30.0529 17.9946 30.4085 17.5024 30.6717C17.0039 30.9382 16.4273 31.1663 15.886 31.2626L15.8777 31.264L10.5129 32.1803C9.21201 32.4046 7.96451 32.0795 7.07584 31.2368C6.18841 30.3952 5.79627 29.1679 5.94154 27.8605L5.94197 27.8567L6.56131 22.4333C6.63324 21.8938 6.8336 21.31 7.06978 20.8035C7.30511 20.2989 7.6262 19.7638 8.00617 19.3593L8.00861 19.3568L21.6919 4.87342C22.9445 3.55029 24.4837 2.36765 26.3628 2.12736M23.5083 6.5912C23.5081 6.59142 23.5085 6.59097 23.5083 6.5912L9.82829 21.071C9.82801 21.0713 9.82858 21.0707 9.82829 21.071C9.69167 21.2168 9.504 21.4989 9.33552 21.8602C9.17008 22.2149 9.07072 22.5431 9.04093 22.754L8.42625 28.1366C8.42619 28.1371 8.42613 28.1377 8.42606 28.1383C8.35522 28.7798 8.5546 29.1937 8.79613 29.4228C9.03662 29.6508 9.45579 29.8257 10.0882 29.7167L10.0901 29.7164L15.452 28.8005C15.6607 28.7628 15.9824 28.6495 16.3237 28.467C16.6697 28.282 16.9299 28.0825 17.0602 27.9397L17.0751 27.9233L30.7586 13.4401C31.8731 12.2628 32.4923 11.1901 32.564 10.1634C32.6312 9.20267 32.2362 7.96057 30.5597 6.37467C28.8926 4.80635 27.6352 4.48502 26.68 4.60717C25.6593 4.73769 24.6222 5.41473 23.5083 6.5912Z" fill="#00BBA5"/>
<path fill-rule="evenodd" clip-rule="evenodd" d="M20.1237 6.91266C20.8058 6.80639 21.4449 7.27321 21.5512 7.95534C22.1797 11.9897 25.4539 15.0774 29.5247 15.4874C30.2116 15.5566 30.7123 16.1695 30.6431 16.8564C30.574 17.5432 29.961 18.044 29.2742 17.9748C24.0782 17.4515 19.8858 13.5058 19.081 8.34019C18.9747 7.65806 19.4415 7.01894 20.1237 6.91266Z" fill="#00BBA5"/>
<path fill-rule="evenodd" clip-rule="evenodd" d="M4.25 36.3998C4.25 35.7094 4.80964 35.1498 5.5 35.1498H35.5C36.1904 35.1498 36.75 35.7094 36.75 36.3998C36.75 37.0901 36.1904 37.6498 35.5 37.6498H5.5C4.80964 37.6498 4.25 37.0901 4.25 36.3998Z" fill="#00BBA5"/>
</svg>
