<svg width="41" height="40" viewBox="0 0 41 40" fill="none" xmlns="http://www.w3.org/2000/svg">
<path fill-rule="evenodd" clip-rule="evenodd" d="M14.8522 4.58331C11.4901 4.58331 8.75061 7.35124 8.75061 10.8043C8.75061 14.1651 11.3292 16.8603 14.5454 17.0065C14.742 16.9926 14.9496 16.9919 15.1457 17.0063C18.3588 16.8586 20.9387 14.1651 20.9539 10.8019C20.9526 7.35179 18.1988 4.58331 14.8522 4.58331ZM6.25061 10.8043C6.25061 6.01234 10.068 2.08331 14.8522 2.08331C19.6181 2.08331 23.4539 6.01049 23.4539 10.8043L23.4539 10.8094C23.4346 15.4969 19.7944 19.3494 15.1598 19.5077C15.1034 19.5096 15.0469 19.5077 14.9908 19.502C14.9129 19.4941 14.7954 19.493 14.6858 19.5031C14.6333 19.508 14.5807 19.5095 14.5281 19.5077C9.89436 19.3494 6.25061 15.4966 6.25061 10.8043Z" fill="#F24141"/>
<path fill-rule="evenodd" clip-rule="evenodd" d="M25.8715 6.69922C25.8715 6.00886 26.4311 5.44922 27.1215 5.44922C31.0453 5.44922 34.1667 8.67203 34.1667 12.5885C34.1667 16.4262 31.1662 19.583 27.3843 19.7269C27.3158 19.7295 27.2472 19.7265 27.1792 19.7178C27.1568 19.715 27.1085 19.7129 27.0465 19.7199C26.3605 19.7973 25.7416 19.304 25.6641 18.618C25.5867 17.932 26.08 17.3131 26.766 17.2357C26.962 17.2135 27.1674 17.2084 27.3703 17.2249C29.7438 17.0914 31.6667 15.0829 31.6667 12.5885C31.6667 10.0099 29.6221 7.94922 27.1215 7.94922C26.4311 7.94922 25.8715 7.38957 25.8715 6.69922Z" fill="#F24141"/>
<path fill-rule="evenodd" clip-rule="evenodd" d="M15.1381 20.908C18.3353 20.908 21.5951 21.7234 24.1137 23.4324C26.3796 24.9646 27.6681 27.1059 27.6681 29.3997C27.6681 31.693 26.3802 33.8378 24.1159 35.3781L24.1157 35.3783C21.5893 37.0961 18.3249 37.9167 15.1257 37.9167C11.9272 37.9167 8.66343 37.0965 6.13725 35.3794C3.87164 33.8472 2.58331 31.706 2.58331 29.4124C2.58331 27.1191 3.8712 24.9743 6.13545 23.4339L6.14004 23.4308L6.14005 23.4308C8.67345 21.7238 11.94 20.908 15.1381 20.908ZM7.53935 25.5025C5.79829 26.6878 5.08331 28.1263 5.08331 29.4124C5.08331 30.6982 5.79803 32.1323 7.53866 33.3091L7.5414 33.3109C9.56838 34.6892 12.3144 35.4167 15.1257 35.4167C17.9369 35.4167 20.6828 34.6893 22.7097 33.3111C24.4525 32.1256 25.1681 30.6863 25.1681 29.3997C25.1681 28.1139 24.4533 26.6798 22.7127 25.503L22.7108 25.5017C20.6928 24.132 17.9509 23.408 15.1381 23.408C12.3268 23.408 9.57566 24.1313 7.53935 25.5025Z" fill="#F24141"/>
<path fill-rule="evenodd" clip-rule="evenodd" d="M29.1489 23.2464C29.303 22.5734 29.9734 22.1529 30.6464 22.307C31.9566 22.607 33.2417 23.1422 34.325 23.9817C35.8851 25.1725 36.7502 26.826 36.7502 28.565C36.7502 30.3034 35.8856 31.9565 34.3263 33.1473C33.2301 34.0011 31.9252 34.5587 30.5765 34.8442C29.9012 34.9872 29.2377 34.5556 29.0947 33.8802C28.9518 33.2049 29.3833 32.5414 30.0587 32.3984C31.0921 32.1797 32.0369 31.7627 32.794 31.172L32.8052 31.1632L32.8052 31.1633C33.8254 30.3857 34.2502 29.4325 34.2502 28.565C34.2502 27.6974 33.8254 26.7442 32.8052 25.9667L32.7966 25.9601L32.7966 25.96C32.0595 25.388 31.1275 24.9819 30.0883 24.7439C29.4153 24.5898 28.9947 23.9193 29.1489 23.2464Z" fill="#F24141"/>
</svg>
