<svg width="41" height="40" viewBox="0 0 41 40" fill="none" xmlns="http://www.w3.org/2000/svg">
<path fill-rule="evenodd" clip-rule="evenodd" d="M11.8167 11.25C11.4128 11.25 11.052 11.2657 10.7217 11.307C10.7056 11.309 10.6894 11.3108 10.6731 11.3121C8.65884 11.4844 7.32279 12.1454 6.47109 13.1472C5.60572 14.1651 5.08331 15.7187 5.08331 17.9833V24.65C5.08331 27.8758 5.73954 29.4021 6.65342 30.2001C7.60932 31.0348 9.17884 31.3833 11.8167 31.3833H12.4833C12.9212 31.3833 13.3293 31.5228 13.6367 31.6781C13.9449 31.8339 14.2886 32.0748 14.5429 32.4073L14.55 32.4166L16.5517 35.0856C16.795 35.4116 17.0242 35.4708 17.15 35.4708C17.2758 35.4708 17.505 35.4116 17.7483 35.0856L17.75 35.0833L19.75 32.4167C20.236 31.7686 21.0065 31.3833 21.8167 31.3833H22.4833C24.75 31.3833 26.3033 30.8641 27.3204 30.0011C28.3207 29.1522 28.9821 27.8174 29.1545 25.7939C29.1559 25.7776 29.1576 25.7613 29.1596 25.745C29.2009 25.4146 29.2167 25.0539 29.2167 24.65V17.9833C29.2167 15.5187 28.5995 13.8965 27.5849 12.8818C26.5702 11.8672 24.948 11.25 22.4833 11.25H11.8167ZM10.4363 8.82329C10.8978 8.76701 11.362 8.75 11.8167 8.75H22.4833C25.3353 8.75 27.7048 9.46618 29.3526 11.114C31.0005 12.7619 31.7167 15.1313 31.7167 17.9833V24.65C31.7167 25.1047 31.6997 25.5688 31.6434 26.0303C31.4289 28.4959 30.5739 30.519 28.9379 31.9073C27.3133 33.2859 25.0999 33.8833 22.4833 33.8833H21.8167C21.8081 33.8833 21.7947 33.8856 21.7798 33.893C21.7649 33.9005 21.7551 33.9098 21.75 33.9167L19.7517 36.5811V36.5811C19.1117 37.4378 18.1821 37.9708 17.15 37.9708C16.1179 37.9708 15.1891 37.4389 14.5491 36.5822V36.5822L12.5744 33.9492C12.5601 33.9385 12.5375 33.9237 12.509 33.9093C12.4834 33.8964 12.4615 33.888 12.4467 33.8833H11.8167C9.13782 33.8833 6.71566 33.5735 5.00905 32.0832C3.26042 30.5563 2.58331 28.0909 2.58331 24.65V17.9833C2.58331 15.3647 3.18592 13.1516 4.56639 11.5279C5.95602 9.89331 7.97804 9.03787 10.4363 8.82329Z" fill="#15C872"/>
<path fill-rule="evenodd" clip-rule="evenodd" d="M12.0395 8.74998H22.4833C25.3353 8.74998 27.7048 9.46616 29.3526 11.114C31.0005 12.7619 31.7167 15.1313 31.7167 17.9833V24.4278C32.9644 24.1214 33.8641 23.5674 34.4962 22.825C35.3605 21.81 35.8833 20.2573 35.8833 17.9833V11.3167C35.8833 8.852 35.2662 7.22977 34.2515 6.21512C33.2369 5.20047 31.6146 4.58331 29.15 4.58331H18.4833C16.2187 4.58331 14.665 5.10572 13.6471 5.97109C12.903 6.60369 12.347 7.5035 12.0395 8.74998ZM12.0278 4.06639C13.6516 2.68592 15.8646 2.08331 18.4833 2.08331H29.15C32.002 2.08331 34.3714 2.7995 36.0193 4.44735C37.6671 6.09521 38.3833 8.46465 38.3833 11.3167V17.9833C38.3833 20.6094 37.7811 22.8233 36.3996 24.4458C35.0046 26.0842 32.9733 26.9345 30.5065 27.1454C30.1307 27.1776 29.7604 27.0383 29.499 26.7664C29.2376 26.4946 29.1128 26.1192 29.1596 25.7449C29.2009 25.4146 29.2167 25.0539 29.2167 24.65V17.9833C29.2167 15.5187 28.5995 13.8964 27.5849 12.8818C26.5702 11.8671 24.948 11.25 22.4833 11.25H11.8167C11.4128 11.25 11.052 11.2657 10.7217 11.307C10.3474 11.3538 9.97206 11.2291 9.7002 10.9676C9.42834 10.7062 9.28907 10.336 9.3212 9.96017C9.53231 7.49115 10.388 5.46053 12.0278 4.06639Z" fill="#15C872"/>
<path fill-rule="evenodd" clip-rule="evenodd" d="M21.3258 22.0834C21.3258 21.1629 22.072 20.4167 22.9925 20.4167H23.0075C23.9279 20.4167 24.6741 21.1629 24.6741 22.0834C24.6741 23.0038 23.9279 23.75 23.0075 23.75H22.9925C22.072 23.75 21.3258 23.0038 21.3258 22.0834Z" fill="#15C872"/>
<path fill-rule="evenodd" clip-rule="evenodd" d="M15.4925 22.0834C15.4925 21.1629 16.2387 20.4167 17.1592 20.4167H17.1742C18.0946 20.4167 18.8408 21.1629 18.8408 22.0834C18.8408 23.0038 18.0946 23.75 17.1742 23.75H17.1592C16.2387 23.75 15.4925 23.0038 15.4925 22.0834Z" fill="#15C872"/>
<path fill-rule="evenodd" clip-rule="evenodd" d="M9.65918 22.0834C9.65918 21.1629 10.4054 20.4167 11.3258 20.4167H11.3408C12.2613 20.4167 13.0075 21.1629 13.0075 22.0834C13.0075 23.0038 12.2613 23.75 11.3408 23.75H11.3258C10.4054 23.75 9.65918 23.0038 9.65918 22.0834Z" fill="#15C872"/>
</svg>
