<svg width="30" height="24" viewBox="0 0 30 24" fill="none" xmlns="http://www.w3.org/2000/svg">
<path d="M2.9934 21.5C1.34866 19.6666 0.361816 17.6666 0.361816 14.3333C0.361816 8.49996 4.47366 3.33329 10.2302 0.666626L11.7105 2.83329C6.28287 5.83329 5.13155 9.66662 4.80261 12.1666C5.62497 11.6666 6.77629 11.5 7.92761 11.6666C10.8881 12 13.1908 14.3333 13.1908 17.5C13.1908 19 12.5329 20.5 11.546 21.6666C10.3947 22.8333 9.07892 23.3333 7.43419 23.3333C5.62497 23.3333 3.98024 22.5 2.9934 21.5ZM19.4408 21.5C17.796 19.6666 16.8092 17.6666 16.8092 14.3333C16.8092 8.49996 20.921 3.33329 26.6776 0.666626L28.1579 2.83329C22.7302 5.83329 21.5789 9.66662 21.25 12.1666C22.0723 11.6666 23.2237 11.5 24.375 11.6666C27.3355 12 29.6381 14.3333 29.6381 17.5C29.6381 19 28.9802 20.5 27.9934 21.6666C27.0066 22.8333 25.5263 23.3333 23.8816 23.3333C22.0723 23.3333 20.4276 22.5 19.4408 21.5Z" fill="white"/>
</svg>
