<svg width="40" height="40" viewBox="0 0 40 40" fill="none" xmlns="http://www.w3.org/2000/svg">
<rect x="1" y="39" width="38" height="38" rx="19" transform="rotate(-90 1 39)" fill="white"/>
<rect x="1" y="39" width="38" height="38" rx="19" transform="rotate(-90 1 39)" stroke="#1A2F36" stroke-width="2"/>
<rect x="1" y="39" width="38" height="38" rx="19" transform="rotate(-90 1 39)" stroke="white" stroke-opacity="0.92" stroke-width="2"/>
<path d="M16.3623 27.4093C16.0239 27.0709 16.0239 26.5222 16.3623 26.1838L22.6818 19.8643L16.3623 13.5446C16.0239 13.2062 16.0239 12.6577 16.3623 12.3193C16.7007 11.9808 17.2493 11.9808 17.5877 12.3193L24.52 19.2516C24.8584 19.59 24.8584 20.1385 24.52 20.4769L17.5877 27.4093C17.2493 27.7477 16.7007 27.7477 16.3623 27.4093V27.4093V27.4093Z" fill="#1A2F36"/>
<path d="M16.3623 27.4093C16.0239 27.0709 16.0239 26.5222 16.3623 26.1838L22.6818 19.8643L16.3623 13.5446C16.0239 13.2062 16.0239 12.6577 16.3623 12.3193C16.7007 11.9808 17.2493 11.9808 17.5877 12.3193L24.52 19.2516C24.8584 19.59 24.8584 20.1385 24.52 20.4769L17.5877 27.4093C17.2493 27.7477 16.7007 27.7477 16.3623 27.4093V27.4093V27.4093Z" fill="white" fill-opacity="0.4"/>
</svg>
