<svg width="40" height="40" viewBox="0 0 40 40" fill="none" xmlns="http://www.w3.org/2000/svg">
<rect x="39" y="1" width="38" height="38" rx="19" transform="rotate(90 39 1)" fill="white"/>
<rect x="39" y="1" width="38" height="38" rx="19" transform="rotate(90 39 1)" stroke="#1A2F36" stroke-width="2"/>
<rect x="39" y="1" width="38" height="38" rx="19" transform="rotate(90 39 1)" stroke="white" stroke-opacity="0.92" stroke-width="2"/>
<path d="M23.6377 12.5907C23.9761 12.9291 23.9761 13.4778 23.6377 13.8162L17.3182 20.1357L23.6377 26.4554C23.9761 26.7938 23.9761 27.3423 23.6377 27.6807C23.2993 28.0192 22.7507 28.0192 22.4123 27.6807L15.48 20.7484C15.1416 20.41 15.1416 19.8615 15.48 19.5231L22.4123 12.5907C22.7507 12.2523 23.2993 12.2523 23.6377 12.5907V12.5907V12.5907Z" fill="#1A2F36"/>
<path d="M23.6377 12.5907C23.9761 12.9291 23.9761 13.4778 23.6377 13.8162L17.3182 20.1357L23.6377 26.4554C23.9761 26.7938 23.9761 27.3423 23.6377 27.6807C23.2993 28.0192 22.7507 28.0192 22.4123 27.6807L15.48 20.7484C15.1416 20.41 15.1416 19.8615 15.48 19.5231L22.4123 12.5907C22.7507 12.2523 23.2993 12.2523 23.6377 12.5907V12.5907V12.5907Z" fill="white" fill-opacity="0.4"/>
</svg>
