<svg width="188" height="186" viewBox="0 0 188 186" fill="none" xmlns="http://www.w3.org/2000/svg">
<rect x="1.5" y="1.5" width="185" height="183" rx="10.5" stroke="#F15822" stroke-width="3"/>
<rect x="1.5" y="1.5" width="185" height="183" rx="10.5" stroke="white" stroke-opacity="0.5" stroke-width="3"/>
<path d="M16.3047 15.5981H53.8135V52.9645H16.3047V15.5981ZM69.8888 15.5981H75.2472V20.9362H69.8888V15.5981ZM91.3224 15.5981H96.6808V20.9362H91.3224V15.5981ZM107.398 15.5981H112.756V26.2742H107.398V15.5981ZM118.114 15.5981H123.473V26.2742H118.114V15.5981ZM134.19 15.5981H171.699V52.9645H134.19V15.5981ZM21.6631 20.9362V47.6264H48.4551V20.9362H21.6631ZM59.172 20.9362H69.8888V26.2742H80.6056V31.6123H91.3224V42.2884H85.964V36.9503H80.6056V42.2884H75.2472V58.3025H80.6056V63.6405H91.3224V68.9786H75.2472V63.6405H69.8888V47.6264H64.5304V42.2884H69.8888V31.6123H64.5304V26.2742H59.172V20.9362ZM85.964 20.9362H91.3224V26.2742H85.964V20.9362ZM139.548 20.9362V47.6264H166.34V20.9362H139.548ZM27.0215 26.2742H43.0967V42.2884H27.0215V26.2742ZM96.6808 26.2742H102.039V31.6123H96.6808V26.2742ZM144.906 26.2742H160.982V42.2884H144.906V26.2742ZM102.039 31.6123H107.398V52.9645H102.039V47.6264H96.6808V52.9645H91.3224V42.2884H102.039V31.6123ZM112.756 31.6123H123.473V42.2884H128.831V58.3025H123.473V47.6264H118.114V36.9503H112.756V31.6123ZM59.172 36.9503H64.5304V42.2884H59.172V36.9503ZM80.6056 42.2884H85.964V58.3025H80.6056V42.2884ZM59.172 47.6264H64.5304V52.9645H59.172V47.6264ZM112.756 47.6264H118.114V68.9786H107.398V74.3166H112.756V79.6547H118.114V74.3166H123.473V84.9927H118.114V90.3308H112.756V95.6688H123.473V84.9927H128.831V68.9786H123.473V63.6405H144.906V74.3166H139.548V68.9786H134.19V74.3166H139.548V90.3308H134.19V95.6688H128.831V101.007H139.548V111.683H150.265V117.021H144.906V122.359H150.265V133.035H155.623V143.711H150.265V154.387H155.623V159.725H150.265V165.063H134.19V159.725H139.548V149.049H134.19V154.387H128.831V165.063H134.19V170.401H112.756V165.063H102.039V159.725H91.3224V154.387H96.6808V149.049H102.039V143.711H107.398V149.049H112.756V154.387H107.398V159.725H112.756V154.387H123.473V143.711H118.114V127.697H112.756V122.359H102.039V117.021H96.6808V122.359H102.039V133.035H91.3224V122.359H80.6056V127.697H75.2472V122.359H69.8888V117.021H75.2472V111.683H80.6056V117.021H91.3224V111.683H96.6808V106.345H102.039V101.007H107.398V79.6547H102.039V74.3166H96.6808V79.6547H102.039V90.3308H91.3224V79.6547H85.964V74.3166H91.3224V68.9786H96.6808V63.6405H102.039V58.3025H107.398V52.9645H112.756V47.6264ZM96.6808 52.9645H102.039V58.3025H96.6808V52.9645ZM16.3047 58.3025H21.6631V63.6405H16.3047V58.3025ZM27.0215 58.3025H32.3799V63.6405H27.0215V58.3025ZM37.7383 58.3025H43.0967V63.6405H48.4551V68.9786H43.0967V74.3166H37.7383V68.9786H32.3799V63.6405H37.7383V58.3025ZM48.4551 58.3025H53.8135V63.6405H48.4551V58.3025ZM144.906 58.3025H150.265V63.6405H144.906V58.3025ZM160.982 58.3025H166.34V63.6405H160.982V58.3025ZM21.6631 63.6405H27.0215V68.9786H21.6631V63.6405ZM53.8135 63.6405H69.8888V68.9786H75.2472V79.6547H85.964V90.3308H91.3224V95.6688H80.6056V90.3308H75.2472V84.9927H69.8888V79.6547H64.5304V74.3166H59.172V68.9786H53.8135V63.6405ZM150.265 63.6405H155.623V68.9786H150.265V63.6405ZM166.34 63.6405H171.699V74.3166H166.34V79.6547H171.699V95.6688H166.34V101.007H171.699V117.021H166.34V122.359H160.982V111.683H166.34V106.345H160.982V90.3308H166.34V84.9927H160.982V74.3166H155.623V68.9786H166.34V63.6405ZM16.3047 68.9786H21.6631V74.3166H16.3047V68.9786ZM27.0215 68.9786H32.3799V74.3166H27.0215V68.9786ZM48.4551 68.9786H53.8135V74.3166H48.4551V68.9786ZM21.6631 74.3166H27.0215V79.6547H32.3799V90.3308H21.6631V84.9927H16.3047V79.6547H21.6631V74.3166ZM43.0967 74.3166H48.4551V79.6547H59.172V90.3308H64.5304V95.6688H48.4551V101.007H43.0967V90.3308H53.8135V84.9927H37.7383V79.6547H43.0967V74.3166ZM144.906 74.3166H150.265V79.6547H144.906V74.3166ZM150.265 79.6547H155.623V106.345H160.982V111.683H150.265V101.007H144.906V90.3308H150.265V79.6547ZM64.5304 84.9927H69.8888V90.3308H64.5304V84.9927ZM32.3799 90.3308H37.7383V95.6688H32.3799V90.3308ZM64.5304 95.6688H75.2472V101.007H64.5304V95.6688ZM96.6808 95.6688H102.039V101.007H96.6808V95.6688ZM16.3047 101.007H21.6631V106.345H16.3047V101.007ZM37.7383 101.007H43.0967V106.345H37.7383V101.007ZM48.4551 101.007H53.8135V106.345H48.4551V101.007ZM21.6631 106.345H27.0215V111.683H21.6631V106.345ZM32.3799 106.345H37.7383V111.683H32.3799V106.345ZM43.0967 106.345H48.4551V111.683H53.8135V106.345H75.2472V111.683H64.5304V122.359H59.172V117.021H48.4551V122.359H53.8135V127.697H32.3799V117.021H37.7383V122.359H43.0967V106.345ZM85.964 106.345H91.3224V111.683H85.964V106.345ZM118.114 106.345V111.683H107.398V117.021H118.114V122.359H123.473V117.021H128.831V122.359H139.548V117.021H128.831V111.683H123.473V106.345H118.114ZM16.3047 111.683H21.6631V117.021H16.3047V111.683ZM27.0215 111.683H32.3799V117.021H27.0215V111.683ZM21.6631 117.021H27.0215V122.359H21.6631V117.021ZM150.265 117.021H155.623V122.359H150.265V117.021ZM16.3047 122.359H21.6631V127.697H16.3047V122.359ZM59.172 127.697H75.2472V133.035H59.172V127.697ZM80.6056 127.697H85.964V133.035H91.3224V138.373H75.2472V133.035H80.6056V127.697ZM128.831 127.697V143.711H144.906V127.697H128.831ZM155.623 127.697H171.699V143.711H166.34V138.373H160.982V133.035H155.623V127.697ZM16.3047 133.035H53.8135V170.401H16.3047V133.035ZM107.398 133.035H112.756V138.373H107.398V133.035ZM134.19 133.035H139.548V138.373H134.19V133.035ZM21.6631 138.373V165.063H48.4551V138.373H21.6631ZM69.8888 138.373H75.2472V143.711H69.8888V138.373ZM96.6808 138.373H102.039V143.711H96.6808V138.373ZM27.0215 143.711H43.0967V159.725H27.0215V143.711ZM59.172 143.711H69.8888V149.049H75.2472V143.711H85.964V149.049H80.6056V159.725H91.3224V165.063H80.6056V170.401H59.172V165.063H64.5304V159.725H69.8888V154.387H64.5304V149.049H59.172V143.711ZM85.964 149.049H91.3224V154.387H85.964V149.049ZM155.623 149.049H160.982V154.387H155.623V149.049ZM59.172 154.387H64.5304V159.725H59.172V154.387ZM166.34 154.387H171.699V159.725H166.34V154.387ZM160.982 159.725H166.34V165.063H171.699V170.401H160.982V159.725ZM96.6808 165.063H102.039V170.401H96.6808V165.063ZM150.265 165.063H155.623V170.401H150.265V165.063Z" fill="black"/>
</svg>
