<svg width="90" height="77" viewBox="0 0 90 77" fill="none" xmlns="http://www.w3.org/2000/svg">
<g clip-path="url(#clip0_25331_187270)">
<mask id="mask0_25331_187270" style="mask-type:luminance" maskUnits="userSpaceOnUse" x="0" y="-17" width="90" height="111">
<path d="M36.5151 -16.0712L90 67.147L53.5011 93.0664L0.0161356 9.84821L36.5151 -16.0712Z" fill="white"/>
</mask>
<g mask="url(#mask0_25331_187270)">
<path d="M88.9717 67.8816C89.1747 67.7465 89.3354 67.5517 89.433 67.3224C89.5307 67.093 89.5609 66.8396 89.5197 66.5947C89.4786 66.3498 89.3679 66.1246 89.2021 65.9481C89.0362 65.7716 88.8227 65.6518 88.589 65.6043C84.9705 64.9434 81.443 63.8533 78.0745 62.3552C76.6525 61.722 75.498 64.0409 76.9265 64.6767C78.4858 65.3684 80.0786 65.9773 81.6992 66.5011C71.3105 67.2919 60.914 65.532 50.994 63.3246C40.5755 61.0065 27.8739 55.5933 26.7437 43.1399C26.4127 39.4882 27.2082 35.8192 28.6871 32.3982C29.544 32.633 30.4148 32.8126 31.2945 32.9361C36.3466 33.6301 41.8971 32.1208 45.9772 28.5409C49.5478 25.4091 54.104 17.3839 47.7361 15.3238C42.603 13.6641 37.1935 17.2413 33.5251 21.0065C31.1316 23.4539 29.0928 26.252 27.4752 29.3094C24.0341 27.9808 20.929 25.7674 18.2313 23.3518C13.1628 18.8118 8.965 13.3176 5.13254 7.66278C4.25672 6.36751 2.15368 7.85515 3.03326 9.15357C6.87608 14.8265 11.1024 20.334 16.1301 24.9455C19.1204 27.6895 22.5466 30.1462 26.3685 31.6365C25.7916 32.9834 25.3162 34.3737 24.9467 35.7945C23.4063 41.7716 24.3388 47.8441 27.5819 52.7234C31.0775 57.9823 36.5044 61.4262 42.3486 63.5428C49.0702 65.976 56.3729 67.1835 63.5001 68.1963C69.3988 69.0354 75.4073 69.4702 81.4337 69.0487C80.1325 69.7006 78.9741 70.6312 78.035 71.7789C77.0081 73.0877 78.8281 74.678 79.8632 73.3589C82.145 70.4487 86.1045 69.9728 88.9717 67.8816ZM30.5143 28.8372C33.0087 24.654 36.7165 20.2871 41.1917 18.3246C43.1419 17.4692 46.3904 16.7374 48.0221 18.3644C49.5613 19.9001 47.2312 23.5843 46.0933 24.9787C43.0376 28.7215 38.0561 30.7345 33.5202 30.5867C32.273 30.5411 31.0356 30.3632 29.8272 30.0555C30.0486 29.6447 30.276 29.2372 30.5149 28.8368" fill="#20AFFF"/>
</g>
</g>
<defs>
<clipPath id="clip0_25331_187270">
<rect width="77" height="90" fill="white" transform="matrix(0 -1 -1 0 90 77)"/>
</clipPath>
</defs>
</svg>
