                                <svg width="41" height="44" viewBox="0 0 41 44" fill="none"
                                    xmlns="http://www.w3.org/2000/svg">
                                    <path
                                        d="M20.5001 44C19.0669 44 17.6132 43.4472 16.528 42.3621L13.0268 38.9018C12.1669 38.0419 10.9794 37.5709 9.77144 37.5709H8.21535C3.97709 37.5709 0.537354 34.1517 0.537354 29.9544V7.61651C0.537354 3.41921 3.97709 0 8.21535 0H32.7849C37.0232 0 40.4629 3.41921 40.4629 7.61651V29.9544C40.4629 34.1517 37.0232 37.5709 32.7849 37.5709H31.2288C30.0208 37.5709 28.8334 38.0624 27.9734 38.9018L24.4722 42.3621C23.3871 43.4472 21.9334 44 20.5001 44ZM8.21535 3.0507C5.67649 3.0507 3.60855 5.09811 3.60855 7.59601V29.9339C3.60855 32.4523 5.67649 34.4792 8.21535 34.4792H9.77144C11.7984 34.4792 13.7639 35.2983 15.1971 36.711L18.6984 40.1712C19.7016 41.154 21.3192 41.154 22.3224 40.1712L25.8235 36.711C27.2567 35.2983 29.2223 34.4792 31.2493 34.4792H32.7849C35.3238 34.4792 37.3917 32.4318 37.3917 29.9339V7.59601C37.3917 5.07763 35.3238 3.0507 32.7849 3.0507H8.21535Z"
                                        fill="white" />
                                    <path
                                        d="M20.504 19.4304C17.0233 19.4304 14.1978 16.6049 14.1978 13.1242C14.1978 9.64353 17.0233 6.81812 20.504 6.81812C23.9847 6.81812 26.8102 9.64353 26.8102 13.1242C26.8102 16.6049 23.9847 19.4304 20.504 19.4304ZM20.504 9.88931C18.7227 9.88931 17.269 11.3429 17.269 13.1242C17.269 14.9055 18.7227 16.3592 20.504 16.3592C22.2853 16.3592 23.739 14.9055 23.739 13.1242C23.739 11.3429 22.2853 9.88931 20.504 9.88931Z"
                                        fill="white" />
                                    <path
                                        d="M28.69 31.0193C27.8505 31.0193 27.1544 30.3231 27.1544 29.4837C27.1544 26.6582 24.1651 24.3446 20.5001 24.3446C16.8352 24.3446 13.8459 26.6582 13.8459 29.4837C13.8459 30.3231 13.1497 31.0193 12.3103 31.0193C11.4708 31.0193 10.7747 30.3231 10.7747 29.4837C10.7747 24.9588 15.1358 21.2734 20.5001 21.2734C25.8645 21.2734 30.2256 24.9588 30.2256 29.4837C30.2256 30.3231 29.5294 31.0193 28.69 31.0193Z"
                                        fill="white" />
                                </svg>