<svg width="51" height="44" viewBox="0 0 51 44" fill="none"
                                    xmlns="http://www.w3.org/2000/svg">
                                    <path
                                        d="M49.1096 43.979H1.89027C1.01027 43.979 0.280518 43.2493 0.280518 42.3693C0.280518 41.4893 1.01027 40.7595 1.89027 40.7595H49.1096C49.9896 40.7595 50.7194 41.4893 50.7194 42.3693C50.7194 43.2493 49.9896 43.979 49.1096 43.979Z"
                                        fill="white" />
                                    <path
                                        d="M42.2012 44C41.3212 44 40.5914 43.2702 40.5914 42.3902V32.8175C40.5914 31.9375 41.3212 31.2078 42.2012 31.2078C43.0812 31.2078 43.8109 31.9375 43.8109 32.8175V42.3902C43.8109 43.2702 43.1026 44 42.2012 44Z"
                                        fill="white" />
                                    <path
                                        d="M42.2448 34.4274C38.7463 34.4274 35.9131 31.5942 35.9131 28.0957V23.2236C35.9131 19.725 38.7463 16.8918 42.2448 16.8918C45.7433 16.8918 48.5765 19.725 48.5765 23.2236V28.0957C48.5765 31.5942 45.7433 34.4274 42.2448 34.4274ZM42.2448 20.1328C40.5277 20.1328 39.1326 21.528 39.1326 23.245V28.1171C39.1326 29.8342 40.5277 31.2293 42.2448 31.2293C43.9619 31.2293 45.357 29.8342 45.357 28.1171V23.245C45.357 21.528 43.9619 20.1328 42.2448 20.1328Z"
                                        fill="white" />
                                    <path
                                        d="M30.4445 43.9784C29.5645 43.9784 28.8347 43.2486 28.8347 42.3686V8.09173C28.8347 4.67905 27.3967 3.2195 24.0484 3.2195H10.6768C7.30706 3.2195 5.84755 4.67905 5.84755 8.09173V42.3686C5.84755 43.2486 5.1178 43.9784 4.2378 43.9784C3.35781 43.9784 2.62805 43.2486 2.62805 42.3686V8.09173C2.62805 2.87613 5.48268 0 10.6768 0H24.0484C29.2211 0 32.0542 2.87613 32.0542 8.09173V42.3686C32.0542 43.2486 31.3245 43.9784 30.4445 43.9784Z"
                                        fill="white" />
                                    <path
                                        d="M22.8103 14.4668H12.1859C11.3059 14.4668 10.5762 13.7371 10.5762 12.8571C10.5762 11.9771 11.3059 11.2473 12.1859 11.2473H22.8103C23.6903 11.2473 24.4201 11.9771 24.4201 12.8571C24.4201 13.7371 23.6903 14.4668 22.8103 14.4668Z"
                                        fill="white" />
                                    <path
                                        d="M22.8103 22.5156H12.1859C11.3059 22.5156 10.5762 21.7859 10.5762 20.9059C10.5762 20.0259 11.3059 19.2961 12.1859 19.2961H22.8103C23.6903 19.2961 24.4201 20.0259 24.4201 20.9059C24.4201 21.7859 23.6903 22.5156 22.8103 22.5156Z"
                                        fill="white" />
                                    <path
                                        d="M17.4512 43.979C16.5712 43.979 15.8414 43.2492 15.8414 42.3692V34.3204C15.8414 33.4404 16.5712 32.7107 17.4512 32.7107C18.3312 32.7107 19.0609 33.4404 19.0609 34.3204V42.3692C19.0609 43.2492 18.3312 43.979 17.4512 43.979Z"
                                        fill="white" />
                                </svg>