<svg width="43" height="44" viewBox="0 0 43 44" fill="none"
                                    xmlns="http://www.w3.org/2000/svg">
                                    <path
                                        d="M15.811 21.4216C15.749 21.4216 15.7077 21.4216 15.6457 21.4216C15.5424 21.4009 15.3978 21.4009 15.2739 21.4216C9.28328 21.2357 4.75934 16.5258 4.75934 10.7211C4.75934 4.81315 9.57248 0 15.4805 0C21.3884 0 26.2016 4.81315 26.2016 10.7211C26.1809 16.5258 21.6363 21.2357 15.873 21.4216C15.8523 21.4216 15.8316 21.4216 15.811 21.4216ZM15.4805 3.09859C11.287 3.09859 7.85793 6.5277 7.85793 10.7211C7.85793 14.8526 11.0805 18.1784 15.1913 18.323C15.3152 18.3023 15.5838 18.3023 15.8523 18.323C19.9011 18.1371 23.0823 14.8113 23.103 10.7211C23.103 6.5277 19.6739 3.09859 15.4805 3.09859Z"
                                        fill="white" />
                                    <path
                                        d="M31.0628 21.69C31.0008 21.69 30.9388 21.69 30.8769 21.6694C30.0299 21.752 29.1623 21.1529 29.0797 20.306C28.9971 19.459 29.5135 18.6947 30.3604 18.5914C30.6083 18.5708 30.8769 18.5708 31.1041 18.5708C34.1201 18.4055 36.475 15.9267 36.475 12.89C36.475 9.75013 33.9341 7.20928 30.7942 7.20928C29.9473 7.22994 29.2449 6.52759 29.2449 5.68064C29.2449 4.8337 29.9473 4.13135 30.7942 4.13135C35.628 4.13135 39.5736 8.07689 39.5736 12.9107C39.5736 17.6619 35.8553 21.5041 31.1248 21.69C31.1041 21.69 31.0834 21.69 31.0628 21.69Z"
                                        fill="white" />
                                    <path
                                        d="M15.8336 43.9998C11.7848 43.9998 7.71529 42.9669 4.63736 40.9012C1.766 39.0007 0.196045 36.3979 0.196045 33.5679C0.196045 30.7378 1.766 28.1143 4.63736 26.1932C10.8345 22.0824 20.874 22.0824 27.0298 26.1932C29.8806 28.0937 31.4712 30.6965 31.4712 33.5265C31.4712 36.3566 29.9012 38.9801 27.0298 40.9012C23.9313 42.9669 19.8824 43.9998 15.8336 43.9998ZM6.35191 28.796C4.36881 30.1181 3.29464 31.812 3.29464 33.5885C3.29464 35.3444 4.38947 37.0383 6.35191 38.3397C11.4956 41.7894 20.1716 41.7894 25.3153 38.3397C27.2984 37.0176 28.3726 35.3237 28.3726 33.5472C28.3726 31.7913 27.2777 30.0974 25.3153 28.796C20.1716 25.3669 11.4956 25.3669 6.35191 28.796Z"
                                        fill="white" />
                                    <path
                                        d="M34.7683 40.2816C34.0453 40.2816 33.4049 39.7858 33.2603 39.0422C33.095 38.1952 33.6321 37.3896 34.4584 37.2037C35.7598 36.9351 36.9579 36.4187 37.8875 35.6957C39.065 34.8074 39.7054 33.6919 39.7054 32.5145C39.7054 31.337 39.065 30.2215 37.9082 29.3539C36.9992 28.6515 35.8631 28.1558 34.5204 27.8459C33.6941 27.66 33.157 26.8337 33.3429 25.9868C33.5288 25.1605 34.3551 24.6234 35.2021 24.8093C36.9786 25.2018 38.5279 25.9041 39.788 26.875C41.7091 28.321 42.8039 30.3661 42.8039 32.5145C42.8039 34.6628 41.6885 36.7079 39.7673 38.1746C38.4866 39.1661 36.8753 39.8891 35.0988 40.2403C34.9748 40.2816 34.8715 40.2816 34.7683 40.2816Z"
                                        fill="white" />
                                </svg>