                                <svg width="45" height="44" viewBox="0 0 45 44" fill="none"
                                    xmlns="http://www.w3.org/2000/svg">
                                    <path
                                        d="M34.5189 42.1981C33.8842 42.1981 33.2495 42.0343 32.6762 41.6862L24.4659 36.8133C23.606 36.7928 22.746 36.7314 21.9271 36.6086C21.3742 36.5267 20.9033 36.1581 20.6986 35.6257C20.4938 35.0934 20.5962 34.5201 20.9648 34.0901C22.3161 32.5136 23.0122 30.6299 23.0122 28.6234C23.0122 23.6686 18.6511 19.6351 13.2868 19.6351C11.2803 19.6351 9.35564 20.188 7.73815 21.2526C7.28771 21.5393 6.7349 21.5802 6.24351 21.355C5.7726 21.1298 5.42455 20.6793 5.36312 20.1469C5.3017 19.5736 5.26074 19.0004 5.26074 18.4066C5.26074 8.25124 14.0648 0 24.8754 0C35.686 0 44.4901 8.25124 44.4901 18.4066C44.4901 23.9757 41.9102 29.0944 37.3649 32.5955L38.061 38.1647C38.2248 39.5569 37.6106 40.8673 36.4435 41.6249C35.8702 41.9934 35.1946 42.1981 34.5189 42.1981ZM24.8549 33.7216C25.1416 33.7011 25.4282 33.7831 25.6739 33.9469L34.2528 39.0451C34.478 39.1884 34.6623 39.127 34.7851 39.0451C34.8875 38.9836 35.0513 38.8198 35.0103 38.5332L34.2118 32.0632C34.1504 31.4899 34.3961 30.9371 34.8465 30.6095C39.0233 27.6817 41.4189 23.2181 41.4189 18.3656C41.4189 9.90964 34.0071 3.0302 24.8754 3.0302C16.0918 3.0302 8.88473 9.41835 8.35239 17.4444C9.88799 16.8506 11.5464 16.523 13.2663 16.523C20.33 16.523 26.0629 21.9282 26.0629 28.5824C26.0834 30.3842 25.6534 32.1246 24.8549 33.7216Z"
                                        fill="white" />
                                    <path
                                        d="M7.30759 44.0001C6.77525 44.0001 6.26337 43.8568 5.79246 43.5497C4.8711 42.9559 4.37973 41.9322 4.50258 40.847L4.91207 37.6939C2.148 35.4417 0.51001 32.1043 0.51001 28.6031C0.51001 24.6106 2.59844 20.8842 6.0996 18.6525C8.20848 17.2807 10.7064 16.5437 13.3066 16.5437C20.3704 16.5437 26.1032 21.9489 26.1032 28.6031C26.1032 31.3058 25.1205 33.9675 23.3187 36.0764C21.0051 38.8814 17.5449 40.5194 13.7366 40.6422L8.7408 43.6111C8.29036 43.8772 7.79898 44.0001 7.30759 44.0001ZM13.2862 19.6149C11.2797 19.6149 9.35503 20.1677 7.73754 21.2323C5.11679 22.9113 3.56074 25.6548 3.56074 28.6031C3.56074 31.4491 4.95302 34.0495 7.40997 35.7284C7.88088 36.056 8.12656 36.6087 8.06514 37.182L7.6147 40.6832L12.5081 37.7758C12.7538 37.6325 13.02 37.5505 13.2862 37.5505C16.2959 37.5505 19.1419 36.2607 20.9437 34.0699C22.295 32.4729 23.0116 30.5892 23.0116 28.5826C23.0116 23.6483 18.6505 19.6149 13.2862 19.6149Z"
                                        fill="white" />
                                </svg>