<svg width="44" height="44" viewBox="0 0 44 44" fill="none"
                                    xmlns="http://www.w3.org/2000/svg">
                                    <path
                                        d="M30.5195 43.9999H14.1473C4.69228 43.9999 2.93226 39.5999 2.48202 35.3226L0.947121 18.9299C0.722003 16.781 0.660607 13.6089 2.789 11.2349C4.63088 9.18839 7.68022 8.20605 12.1007 8.20605H32.5661C37.007 8.20605 40.0564 9.20886 41.8778 11.2349C44.0062 13.6089 43.9448 16.781 43.7197 18.9504L42.1848 35.3022C41.7345 39.5999 39.9745 43.9999 30.5195 43.9999ZM12.1007 11.2554C8.64209 11.2554 6.26811 11.9307 5.06065 13.2815C4.05785 14.3866 3.73041 16.0852 3.99646 18.6229L5.53136 35.0156C5.87927 38.2492 6.75928 40.9301 14.1473 40.9301H30.5195C37.8871 40.9301 38.7875 38.2492 39.1354 34.9952L40.6703 18.6434C40.9364 16.0852 40.6089 14.3866 39.6061 13.2815C38.3987 11.9307 36.0247 11.2554 32.5661 11.2554H12.1007Z"
                                        fill="white" />
                                    <path
                                        d="M30.5188 11.2559C29.6797 11.2559 28.9839 10.5601 28.9839 9.72104V8.08381C28.9839 4.44098 28.9839 3.0698 23.9699 3.0698H20.6954C15.6814 3.0698 15.6814 4.44098 15.6814 8.08381V9.72104C15.6814 10.5601 14.9856 11.2559 14.1465 11.2559C13.3074 11.2559 12.6116 10.5601 12.6116 9.72104V8.08381C12.6116 4.48191 12.6116 0 20.6954 0H23.9699C32.0537 0 32.0537 4.48191 32.0537 8.08381V9.72104C32.0537 10.5601 31.3578 11.2559 30.5188 11.2559Z"
                                        fill="white" />
                                    <path
                                        d="M22.3258 31.721C16.6978 31.721 16.6978 28.2419 16.6978 26.1545V24.0465C16.6978 21.1609 17.3936 20.4651 20.2792 20.4651H24.3723C27.2579 20.4651 27.9538 21.1609 27.9538 24.0465V26.0931C27.9538 28.2215 27.9538 31.721 22.3258 31.721ZM19.7676 23.5349C19.7676 23.6986 19.7676 23.8828 19.7676 24.0465V26.1545C19.7676 28.2624 19.7676 28.6512 22.3258 28.6512C24.884 28.6512 24.884 28.3238 24.884 26.134V24.0465C24.884 23.8828 24.884 23.6986 24.884 23.5349C24.7202 23.5349 24.536 23.5349 24.3723 23.5349H20.2792C20.1155 23.5349 19.9313 23.5349 19.7676 23.5349Z"
                                        fill="white" />
                                    <path
                                        d="M26.4287 27.6696C25.6714 27.6696 24.9961 27.0965 24.9142 26.3188C24.8119 25.4798 25.4054 24.7021 26.2445 24.5998C31.6473 23.9244 36.8251 21.8779 41.1842 18.7057C41.8595 18.1941 42.8214 18.3578 43.333 19.0536C43.8242 19.729 43.6809 20.6909 42.9851 21.2025C38.1962 24.6816 32.5478 26.9123 26.6129 27.6696C26.5515 27.6696 26.4901 27.6696 26.4287 27.6696Z"
                                        fill="white" />
                                    <path
                                        d="M18.2494 27.6896C18.188 27.6896 18.1266 27.6896 18.0652 27.6896C12.4577 27.0551 6.99345 25.0086 2.26596 21.7751C1.57014 21.3044 1.38595 20.3425 1.85665 19.6467C2.32736 18.9509 3.28923 18.7667 3.98505 19.2374C8.30324 22.1844 13.2763 24.0467 18.3926 24.6402C19.2317 24.7426 19.8457 25.4998 19.7434 26.3388C19.682 27.1165 19.0271 27.6896 18.2494 27.6896Z"
                                        fill="white" />
                                </svg>