<svg width="35" height="44" viewBox="0 0 35 44" fill="none"
                                    xmlns="http://www.w3.org/2000/svg">
                                    <path
                                        d="M17.5 44.0001C16.2721 44.0001 15.0647 43.7136 14.0823 43.161L4.40233 37.5741C0.391168 34.8727 0.125122 34.3815 0.125122 30.1452V19.9945C0.125122 15.7582 0.391169 15.2671 4.32047 12.6271L14.1028 6.97871C16.047 5.85313 18.9735 5.85313 20.9177 6.97871L30.5977 12.5657C34.6088 15.2671 34.8749 15.7582 34.8749 19.9945V30.1452C34.8749 34.3815 34.6088 34.8727 30.6795 37.5127L20.8972 43.161C19.9354 43.7341 18.7074 44.0001 17.5 44.0001ZM17.5 9.20941C16.8042 9.20941 16.1084 9.35266 15.6172 9.63917L5.93721 15.2261C3.19489 17.0885 3.19489 17.0885 3.19489 19.9945V30.1452C3.19489 33.0513 3.19489 33.0513 6.03954 34.975L15.6377 40.5006C16.62 41.0736 18.4005 41.0736 19.3828 40.5006L29.0628 34.9136C31.8051 33.0513 31.8051 33.0513 31.8051 30.1452V19.9945C31.8051 17.0885 31.8051 17.0885 28.9605 15.1648L19.3623 9.63917C18.8916 9.35266 18.1958 9.20941 17.5 9.20941Z"
                                        fill="white" />
                                    <path
                                        d="M28.7603 14.5916C27.9212 14.5916 27.2254 13.8958 27.2254 13.0567V7.67442C27.2254 4.44093 25.8542 3.06977 22.6208 3.06977H12.3882C9.15471 3.06977 7.78354 4.44093 7.78354 7.67442V12.9135C7.78354 13.7526 7.08773 14.4484 6.24866 14.4484C5.40959 14.4484 4.71378 13.773 4.71378 12.9135V7.67442C4.71378 2.72186 7.43564 0 12.3882 0H22.6208C27.5733 0 30.2952 2.72186 30.2952 7.67442V13.0567C30.2952 13.8958 29.5994 14.5916 28.7603 14.5916Z"
                                        fill="white" />
                                    <path
                                        d="M20.8368 33.522C20.407 33.522 19.9568 33.4402 19.5066 33.256L17.501 32.4783L15.4954 33.2765C14.4107 33.7062 13.3056 33.6039 12.487 33.0104C11.6684 32.4169 11.2386 31.3937 11.3 30.2272L11.4228 28.0783L10.0517 26.4206C9.31493 25.4997 9.06935 24.4355 9.39679 23.4532C9.70377 22.4913 10.5428 21.7546 11.6684 21.4681L13.7559 20.936L14.9224 19.1146C16.1707 17.15 18.8517 17.15 20.1 19.1146L21.2666 20.936L23.354 21.4681C24.4796 21.7546 25.3186 22.4913 25.6256 23.4532C25.9326 24.4151 25.687 25.4997 24.9503 26.4002L23.5791 28.0579L23.7019 30.2067C23.7633 31.3732 23.3335 32.376 22.5149 32.99C22.0238 33.3379 21.4507 33.522 20.8368 33.522ZM12.4256 24.456L13.7968 26.1137C14.2675 26.6662 14.5335 27.5462 14.4926 28.2625L14.3698 30.4113L16.3754 29.6132C17.0507 29.3472 17.9512 29.3472 18.6266 29.6132L20.6321 30.4113L20.5093 28.2625C20.4684 27.5462 20.7345 26.6867 21.2052 26.1137L22.5763 24.456L20.4889 23.9239C19.7931 23.7397 19.0563 23.2076 18.6675 22.6141L17.5214 20.8132L16.3549 22.6141C15.9661 23.2281 15.2293 23.7602 14.5335 23.9444L12.4256 24.456Z"
                                        fill="white" />
                                </svg>