<svg width="16" height="16" viewBox="0 0 16 16" fill="none" xmlns="http://www.w3.org/2000/svg">
<path d="M12.7565 3.5805C13.036 3.72292 13.2632 3.95017 13.4056 4.22969C13.4721 4.36009 13.5177 4.53225 13.5422 4.83192C13.5672 5.13736 13.5676 5.52968 13.5676 6.09248V7.21289C13.5676 7.72093 13.5644 7.89424 13.5265 8.05195C13.4901 8.20353 13.4301 8.34839 13.3486 8.48129C13.2639 8.61962 13.1436 8.74439 12.7844 9.10362L9.41761 12.4704C9.01964 12.8684 8.74195 13.1456 8.50836 13.3439C8.27912 13.5385 8.12509 13.6279 7.98593 13.6731C7.68758 13.7701 7.36618 13.7701 7.06784 13.6731C6.92866 13.6279 6.77463 13.5385 6.54546 13.3439C6.31181 13.1455 6.03412 12.8684 5.63614 12.4704L4.51575 11.35C4.11778 10.9521 3.84061 10.6744 3.64229 10.4407C3.44772 10.2115 3.35826 10.0575 3.31303 9.91834C3.21612 9.61998 3.21612 9.2986 3.31303 9.00024C3.35826 8.86107 3.44772 8.70704 3.64229 8.47782C3.84061 8.24424 4.11778 7.96655 4.51575 7.56856L7.88254 4.20177C8.24176 3.84253 8.36655 3.72224 8.50479 3.6375C8.63777 3.55605 8.78261 3.49603 8.93419 3.45966C9.09192 3.42179 9.26523 3.41861 9.77324 3.41861H10.8937C11.4565 3.41861 11.8488 3.41901 12.1542 3.44396C12.4539 3.46844 12.626 3.51409 12.7565 3.58053V3.5805L12.7565 3.5805ZM14.288 3.78008C14.0507 3.31422 13.6719 2.93547 13.2061 2.69809C12.9128 2.54867 12.5958 2.48637 12.2349 2.45687C11.8844 2.42823 11.4515 2.42825 10.9149 2.42825L9.71682 2.42823C9.28663 2.42811 8.98887 2.42802 8.70299 2.49666C8.45039 2.5573 8.20887 2.65733 7.98739 2.79309C7.73669 2.94668 7.52622 3.1573 7.22212 3.46157L3.80047 6.88325C3.42097 7.26272 3.11497 7.5688 2.88733 7.83692C2.65302 8.11295 2.47291 8.38113 2.37117 8.6942C2.20961 9.19142 2.20961 9.72706 2.37117 10.2243C2.47291 10.5373 2.65301 10.8056 2.88733 11.0816C3.11491 11.3497 3.42097 11.6558 3.80047 12.0352L4.95091 13.1857C5.33035 13.5651 5.63643 13.8712 5.90453 14.0988C6.18058 14.3331 6.44875 14.5133 6.76183 14.615C7.25911 14.7766 7.79475 14.7766 8.29195 14.615C8.60504 14.5133 8.87322 14.3332 9.14926 14.0988C9.41737 13.8712 9.72344 13.5651 10.1029 13.1857L13.5246 9.76397C13.8289 9.45993 14.0395 9.2494 14.1931 8.99877C14.3288 8.77725 14.4288 8.53576 14.4895 8.28309C14.5581 7.99729 14.558 7.69952 14.5579 7.26931L14.5579 6.07126C14.5579 5.53461 14.5579 5.10177 14.5293 4.75125C14.4998 4.39035 14.4375 4.07336 14.2881 3.78007L14.288 3.78008ZM9.8609 6.29965C10.3167 6.29965 10.6862 6.66915 10.6862 7.12493C10.6862 7.58069 10.3167 7.9502 9.8609 7.9502C9.40511 7.9502 9.0356 7.58067 9.0356 7.12493C9.0356 6.66915 9.4051 6.29965 9.8609 6.29965ZM11.6765 7.12495C11.6765 6.1222 10.8636 5.30934 9.8609 5.30934C8.85813 5.30934 8.04527 6.1222 8.04527 7.12495C8.04527 8.12768 8.85812 8.94055 9.8609 8.94055C10.8636 8.94055 11.6765 8.12768 11.6765 7.12495Z" fill="#F0500A"/>
</svg>
